<svg xmlns="http://www.w3.org/2000/svg" viewBox="0 0 750 500"><g id="freepik--background-complete--inject-3"><path d="M138.11,482.54c-7.37-33.94,10-60.55,10-60.55C161.06,448.35,138.11,482.54,138.11,482.54Z" style="fill:#e0e0e0"></path><path d="M136.19,381.38c21.31-.12,36.13,14.12,36.13,14.12C155.16,400.08,136.19,381.38,136.19,381.38Z" style="fill:#e0e0e0"></path><path d="M181.62,398c5,25.1-8.18,45.84-8.18,45.84C164.12,424.65,181.62,398,181.62,398Z" style="fill:#e0e0e0"></path><path d="M126.16,431.62c-.27-.39,14.61-11.41,33.25-24.62s34-23.6,34.24-23.21S179,395.19,160.4,408.4,126.44,432,126.16,431.62Z" style="fill:#e0e0e0"></path><path d="M85.83,469.19s13-37.43,48-42.36C133.87,426.83,123.23,458.92,85.83,469.19Z" style="fill:#e0e0e0"></path><path d="M89.63,412.93s32.74-22.3,63.82-5.36C153.45,407.57,125.78,427,89.63,412.93Z" style="fill:#e0e0e0"></path><path d="M584.86,28.41c6.19,34.18-12.06,60.17-12.06,60.17C560.74,61.79,584.86,28.41,584.86,28.41Z" style="fill:#e0e0e0"></path><path d="M583.28,129.58c-21.31-.62-35.62-15.37-35.62-15.37C565,110.23,583.28,129.58,583.28,129.58Z" style="fill:#e0e0e0"></path><path d="M538.45,111.41c-4.18-25.25,9.77-45.52,9.77-45.52C556.87,85.37,538.45,111.41,538.45,111.41Z" style="fill:#e0e0e0"></path><path d="M595,79.72c.26.4-15,10.9-34.08,23.45s-34.76,22.41-35,22,15-10.89,34.08-23.45S594.78,79.32,595,79.72Z" style="fill:#e0e0e0"></path><path d="M636.65,43.57s-14.28,36.95-49.48,40.66C587.17,84.23,598.92,52.54,636.65,43.57Z" style="fill:#e0e0e0"></path><path d="M630.9,99.66s-33.49,21.15-64,3.15C566.93,102.81,595.26,84.37,630.9,99.66Z" style="fill:#e0e0e0"></path><path d="M86.33,211.24a53.51,53.51,0,0,1,13.06-5.68l2.69-12.92,21.84-.38,3.14,12.82a53,53,0,0,1,13.25,5.21l11-7.23,15.71,15.17-6.84,11.28a53.47,53.47,0,0,1,5.67,13.06l12.93,2.69.38,21.84-12.82,3.14a54.11,54.11,0,0,1-5.21,13.25l7.23,11-15.17,15.72L142,303.4a53.86,53.86,0,0,1-13.06,5.67L126.2,322l-21.84.39-3.14-12.82A53.44,53.44,0,0,1,88,304.34l-11,7.24L61.22,296.41l6.84-11.29a53.24,53.24,0,0,1-5.67-13.05l-12.93-2.69-.38-21.84L61.9,244.4a53.8,53.8,0,0,1,5.21-13.25l-7.23-11L75.05,204.4l11.28,6.84ZM98,240.33a23.43,23.43,0,1,0,33.13-.58A23.44,23.44,0,0,0,98,240.33Z" style="fill:#ebebeb"></path><path d="M682.33,257.6a22.58,22.58,0,0,1,5.49-2.39l1.14-5.44,9.18-.16,1.32,5.4A22.18,22.18,0,0,1,705,257.2l4.64-3,6.61,6.38-2.88,4.74a22.49,22.49,0,0,1,2.39,5.5l5.44,1.13.16,9.19-5.4,1.32a22.26,22.26,0,0,1-2.19,5.57l3,4.64-6.38,6.61-4.74-2.87a22.45,22.45,0,0,1-5.5,2.38l-1.13,5.44-9.18.16L688.59,299a22.68,22.68,0,0,1-5.57-2.2l-4.64,3.05-6.61-6.38,2.88-4.75a22.58,22.58,0,0,1-2.39-5.49l-5.44-1.14-.16-9.18,5.39-1.32a22.75,22.75,0,0,1,2.2-5.58l-3-4.64,6.38-6.61,4.75,2.88Zm4.9,12.24a9.86,9.86,0,1,0,13.93-.25A9.85,9.85,0,0,0,687.23,269.84Z" style="fill:#ebebeb"></path><path d="M340.64,226.51a43.71,43.71,0,0,1,10.61-4.61l2.18-10.5,17.75-.31,2.56,10.42a43.24,43.24,0,0,1,10.77,4.23l9-5.88,12.76,12.33-5.55,9.17A43.94,43.94,0,0,1,405.3,252l10.5,2.18.31,17.75-10.42,2.55a43.47,43.47,0,0,1-4.23,10.77l5.87,9L395,307l-9.17-5.56A43.17,43.17,0,0,1,375.22,306L373,316.53l-17.75.31-2.56-10.42A43.43,43.43,0,0,1,342,302.18l-9,5.88-12.77-12.33,5.56-9.17A43.52,43.52,0,0,1,321.17,276l-10.5-2.19L310.36,256l10.42-2.56A44,44,0,0,1,325,242.69l-5.87-9L331.46,221l9.18,5.56Zm9.46,23.65a19,19,0,1,0,26.92-.48A19,19,0,0,0,350.1,250.16Z" style="fill:#ebebeb"></path><path d="M243.28,380.59A43.52,43.52,0,0,1,253.89,376l2.19-10.5,17.74-.31,2.56,10.42a43.63,43.63,0,0,1,10.77,4.23l9-5.88,12.77,12.33-5.56,9.17a43.55,43.55,0,0,1,4.61,10.62l10.5,2.18.31,17.75-10.42,2.56a43,43,0,0,1-4.23,10.76l5.88,9-12.33,12.77-9.17-5.56a43.94,43.94,0,0,1-10.62,4.61l-2.18,10.5-17.75.31-2.55-10.42a43.47,43.47,0,0,1-10.77-4.23l-9,5.87-12.77-12.32,5.56-9.17A43.17,43.17,0,0,1,223.82,430l-10.51-2.18L213,410.09l10.42-2.56a43.43,43.43,0,0,1,4.24-10.76l-5.88-9L234.11,375l9.17,5.56Zm9.46,23.64a19,19,0,1,0,26.92-.47A19,19,0,0,0,252.74,404.23Z" style="fill:#ebebeb"></path><path d="M614.31,325.86A47.92,47.92,0,0,1,626,320.77l2.41-11.59,19.59-.34,2.82,11.49A47.85,47.85,0,0,1,662.72,325l9.9-6.49,14.09,13.6-6.14,10.12A47.92,47.92,0,0,1,685.66,354l11.59,2.42.34,19.58-11.49,2.82a48.24,48.24,0,0,1-4.68,11.88l6.49,9.9L674.3,414.64l-10.11-6.14a47.82,47.82,0,0,1-11.72,5.09l-2.41,11.59-19.58.34L627.66,414a48.24,48.24,0,0,1-11.88-4.68l-9.9,6.49-14.09-13.61,6.14-10.11a47.92,47.92,0,0,1-5.09-11.71L581.25,378l-.35-19.58,11.5-2.82a47.85,47.85,0,0,1,4.68-11.88l-6.49-9.9,13.6-14.09,10.12,6.14ZM624.75,352a21,21,0,1,0,29.71-.53A21,21,0,0,0,624.75,352Z" style="fill:#ebebeb"></path></g><g id="freepik--Icons--inject-3"><path d="M671.7,143.55a17.14,17.14,0,0,0,6.63-17.65c-2-9.26-10.6-15.28-19.28-13.44s-14.13,10.84-12.16,20.09A17.09,17.09,0,0,0,660.28,146c-23.38,8.88-16.59,34.91-16.59,34.91l57.2-12.12S696.45,142,671.7,143.55Z" style="fill:#ebebeb"></path><path d="M671.7,143.55l.78,0a17.54,17.54,0,0,1,2.21,0,24.36,24.36,0,0,1,19.08,9.37,37.7,37.7,0,0,1,7.32,15.95l0,.19-.19,0-57.2,12.17-.25,0,0-.24a37.24,37.24,0,0,1-.92-8.3,34.67,34.67,0,0,1,1-8.56,25.36,25.36,0,0,1,6.14-11.5,26.56,26.56,0,0,1,4.94-4.06,32.89,32.89,0,0,1,5.61-2.78l0,.48a16.57,16.57,0,0,1-8.62-4.54,18.11,18.11,0,0,1-.84-24.76,15.47,15.47,0,0,1,14.47-4.72,16.92,16.92,0,0,1,10.85,7.7,17.31,17.31,0,0,1,2.25,5.43,17.79,17.79,0,0,1,.48,5.19,17.28,17.28,0,0,1-2.37,7.9,15.94,15.94,0,0,1-3.31,4,9.89,9.89,0,0,1-1,.82l-.39.27.34-.28a13.35,13.35,0,0,0,1-.88,16.34,16.34,0,0,0,3.22-4,17.23,17.23,0,0,0,2.26-7.82,17.62,17.62,0,0,0-.5-5.11,17.18,17.18,0,0,0-2.25-5.33,16.63,16.63,0,0,0-10.65-7.49,15.09,15.09,0,0,0-14.07,4.64,17.4,17.4,0,0,0-3.73,16.2,17.59,17.59,0,0,0,4.6,7.91,16.15,16.15,0,0,0,8.37,4.39l.86.16-.82.33a34.07,34.07,0,0,0-5.51,2.74,26.34,26.34,0,0,0-4.85,4,24.83,24.83,0,0,0-6,11.26,34.18,34.18,0,0,0-1,8.44,37.13,37.13,0,0,0,.9,8.17l-.31-.18,57.22-12.06-.15.23A37.67,37.67,0,0,0,693.52,153,24.63,24.63,0,0,0,683,145.19a25.4,25.4,0,0,0-8.28-1.62c-1-.07-1.75,0-2.24,0Z" style="fill:#263238"></path><polygon points="709.08 153.69 697.85 156.13 695.41 144.89 685.83 146.97 688.27 158.2 677.03 160.64 679.11 170.22 690.34 167.78 692.78 179.02 702.36 176.94 699.92 165.71 711.16 163.27 709.08 153.69" style="fill:#04034E"></polygon><polygon points="80.74 358.33 71.11 361.21 68.24 351.58 60.03 354.03 62.9 363.66 53.27 366.53 55.72 374.74 65.35 371.87 68.23 381.5 76.44 379.05 73.56 369.42 83.19 366.55 80.74 358.33" style="fill:#04034E"></polygon><path d="M78.47,120.6a12.77,12.77,0,0,0,11-8.66c2.33-6.65-.83-13.82-7.06-16S69.27,97.36,66.94,104a12.73,12.73,0,0,0,3.31,13.75c-18.31-3.4-24.06,15.78-24.06,15.78L87.25,148S94.81,129.18,78.47,120.6Z" style="fill:#ebebeb"></path><path d="M78.47,120.6l.52.27a14.21,14.21,0,0,1,1.42.81,18.55,18.55,0,0,1,4.73,4.2A18.36,18.36,0,0,1,89,135a28.31,28.31,0,0,1-1.51,13l-.07.18-.19-.07L46.1,133.77l-.24-.09.08-.23a28,28,0,0,1,6.59-10.73,19,19,0,0,1,8.37-5,20.21,20.21,0,0,1,4.73-.67,24.78,24.78,0,0,1,4.66.4l-.21.44a12.46,12.46,0,0,1-3.75-6.26,13.5,13.5,0,0,1,.16-7,13.33,13.33,0,0,1,8.93-9.11,11.84,11.84,0,0,1,6.08-.1,11.72,11.72,0,0,1,5,2.72,12.65,12.65,0,0,1,3.93,9.13A13.67,13.67,0,0,1,88,115.12a13,13,0,0,1-4.58,4.11,11.56,11.56,0,0,1-3.66,1.24,9.67,9.67,0,0,1-1.33.13s.45,0,1.32-.22a12.21,12.21,0,0,0,3.59-1.3,12.94,12.94,0,0,0,4.45-4.1,13.51,13.51,0,0,0,2.27-7.69,12.29,12.29,0,0,0-3.86-8.84A11.13,11.13,0,0,0,75.54,96,12.86,12.86,0,0,0,67,104.79a13,13,0,0,0-.14,6.77,12,12,0,0,0,3.6,6l.66.58L70.2,118a25.52,25.52,0,0,0-4.56-.39,19.5,19.5,0,0,0-4.6.66,18.41,18.41,0,0,0-8.15,4.82,27.72,27.72,0,0,0-6.46,10.51l-.16-.32,41,14.49-.26.12a28,28,0,0,0,1.57-12.81A18.39,18.39,0,0,0,85,126a19,19,0,0,0-4.63-4.24c-.58-.42-1.11-.69-1.41-.9Z" style="fill:#263238"></path></g><g id="freepik--character-4--inject-3"><path d="M607.88,263.32H430.47a10.08,10.08,0,0,0-10.08,10.08v65.4H416a13.62,13.62,0,0,1-5.93-1.42,27.22,27.22,0,1,0-.82,49.45,13.59,13.59,0,0,1,5.5-1.21h5.68V449.4a10.08,10.08,0,0,0,10.08,10.08H607.88a8.21,8.21,0,0,0,8.21-8.21V271.53A8.2,8.2,0,0,0,607.88,263.32Z" style="fill:#e0e0e0"></path><path d="M607.88,263.32h.55a5,5,0,0,1,.69.07,5.79,5.79,0,0,1,.94.19,8.18,8.18,0,0,1,5,3.86,8.6,8.6,0,0,1,1.1,4.6c0,1.75,0,3.66,0,5.74,0,4.15,0,8.94,0,14.33,0,21.56,0,52.76.09,91.31,0,19.27,0,40.39,0,63.05v4.27a10.73,10.73,0,0,1-.16,2.18,8.65,8.65,0,0,1-.73,2.09,8.41,8.41,0,0,1-7.13,4.66l-17.85,0H553.19l-80,0H430.93a10.68,10.68,0,0,1-5.31-1.21,10.37,10.37,0,0,1-5.49-9V385.62l.26.26h-4.32c-.72,0-1.45,0-2.14,0a12.27,12.27,0,0,0-2.09.32,14.19,14.19,0,0,0-2,.63c-.64.27-1.32.57-2,.82a28.26,28.26,0,0,1-4.16,1.19,26.76,26.76,0,0,1-4.27.51,15.41,15.41,0,0,1-2.15,0c-.71-.05-1.43-.07-2.14-.14A30,30,0,0,1,386.9,387a27.71,27.71,0,0,1-12.38-11.17,29.93,29.93,0,0,1-3-7.76c-.17-.67-.24-1.37-.36-2l-.17-1c0-.34,0-.69-.06-1l-.11-2.08.12-2.06a27.23,27.23,0,0,1,5.92-15,27.73,27.73,0,0,1,13.13-9,27.38,27.38,0,0,1,15.63-.28,26.55,26.55,0,0,1,3.69,1.32,19.35,19.35,0,0,0,3.55,1.39,13.16,13.16,0,0,0,3.75.41h3.83l-.24.24c0-19,0-37.32,0-54.79v-9.74a12.58,12.58,0,0,1,.29-3.23,10.22,10.22,0,0,1,3.32-5.45,11.19,11.19,0,0,1,2.71-1.69,11.08,11.08,0,0,1,3.09-.75c8.34-.09,16.4,0,24.25,0l81.78.05,53.25.07,14.15,0,3.64,0c.81,0,1.23,0,1.23,0l-1.23,0-3.64,0-14.15,0-53.25.06-81.78.06c-7.83,0-15.94,0-24.21.05a10.52,10.52,0,0,0-3,.73,10.27,10.27,0,0,0-2.6,1.61,9.86,9.86,0,0,0-3.18,5.23,12.5,12.5,0,0,0-.27,3.13V284c0,17.47,0,35.78,0,54.79V339h-4.07a13.72,13.72,0,0,1-3.87-.42,20,20,0,0,1-3.63-1.42,26.92,26.92,0,0,0-19-1A27.25,27.25,0,0,0,377.2,345a26.77,26.77,0,0,0-5.81,14.77l-.11,2,.1,2c0,.34,0,.68.06,1l.17,1c.12.67.19,1.35.35,2a29.5,29.5,0,0,0,3,7.62,30.75,30.75,0,0,0,5.21,6.39,30.28,30.28,0,0,0,6.94,4.56,29.66,29.66,0,0,0,8.07,2.22c.69.07,1.4.09,2.1.13a16.48,16.48,0,0,0,2.11,0,26.94,26.94,0,0,0,4.19-.51,26.38,26.38,0,0,0,4.08-1.17c.67-.24,1.3-.53,2-.81a14.8,14.8,0,0,1,2.08-.66,12.22,12.22,0,0,1,2.17-.32c.74-.05,1.46,0,2.18,0h4.58v64.12a9.88,9.88,0,0,0,5.21,8.59,10.13,10.13,0,0,0,5.07,1.15H608.27a8,8,0,0,0,6.76-4.42,8.16,8.16,0,0,0,.69-2,10.35,10.35,0,0,0,.15-2.09c0-1.43,0-2.85,0-4.27,0-22.66,0-43.78,0-63.05,0-38.55.06-69.75.08-91.31,0-5.39,0-10.18,0-14.33,0-2.08,0-4,0-5.74A8.52,8.52,0,0,0,615,267.5a8.17,8.17,0,0,0-4.92-3.86,5.7,5.7,0,0,0-.94-.2,3.85,3.85,0,0,0-.68-.08Z" style="fill:#263238"></path><path d="M564.63,372.5c-.44-12.07-.88-24.2-3.2-36.07s-5.24-23.41-12.71-32.95l-69.89,3.72c-2.7,10.7-5.42,21.67-4.3,32.65,1.09,10.66,5.77,20.95,5,31.64-.54,7.55-3.75,14.61-6.12,21.8s-3.88,15.17-1.07,22.2a9.34,9.34,0,0,0,3.35,4.54c2,1.28,4.47,1.33,6.82,1.33q41.91.06,83.79-1.91Q565.46,396,564.63,372.5Z" style="fill:#263238"></path><path d="M554,333.49a52.63,52.63,0,0,1-17,39.85l-7.58-21.81" style="fill:#263238"></path><path d="M496.86,290.09c6.51-3.53,14.36-4,21.63-2.59s14,4.71,20.45,8.4c3.6,2.07,7.19,4.35,9.78,7.58,4.72,5.91,9.39,15.61,9.84,23.14.37,6.09-2,21.33-4.56,26.86-2.38,5.07-13.5,8.94-19,10.19l-50.36-58.22A25.4,25.4,0,0,1,496.86,290.09Z" style="fill:#263238"></path><path d="M488.18,298l12.07-2.15c-6.59,15.62-8.38,51.35-12.16,67.87-4.45-6.42-14.78-26-14.23-33.74S473.84,296.62,488.18,298Z" style="fill:#263238"></path><path d="M545.42,323.9A20.54,20.54,0,0,0,530,305.11L502.1,298c-12-1.3-20,13.4-20.82,25.38-.88,13.32-1.41,27.37.15,37.32,3.15,20,18.55,22.56,18.55,22.56s0,4.62,0,10.46l.31.73c7.15,16.75,30.74,17.52,39,1.27h0l6.2-71.56C545.5,323.84,545.45,324.44,545.42,323.9Z" style="fill:#ffbf9d"></path><path d="M485.13,338.4a2.57,2.57,0,0,0,2.48,2.59,2.46,2.46,0,0,0,2.67-2.3,2.57,2.57,0,0,0-2.48-2.6A2.48,2.48,0,0,0,485.13,338.4Z" style="fill:#263238"></path><path d="M484.3,331.24c.32.34,2.27-1.09,5.05-1.08s4.8,1.4,5.1,1.06c.15-.15-.17-.75-1.06-1.4a7.13,7.13,0,0,0-4.08-1.26,6.8,6.8,0,0,0-4,1.28C484.43,330.49,484.14,331.09,484.3,331.24Z" style="fill:#263238"></path><path d="M510.39,338.05a2.57,2.57,0,0,0,2.48,2.59,2.45,2.45,0,0,0,2.66-2.3,2.55,2.55,0,0,0-2.47-2.59A2.46,2.46,0,0,0,510.39,338.05Z" style="fill:#263238"></path><path d="M510.65,331.24c.32.34,2.28-1.09,5.05-1.08s4.8,1.4,5.1,1.06c.15-.15-.17-.75-1.06-1.4a7.13,7.13,0,0,0-4.08-1.26,6.87,6.87,0,0,0-4,1.28C510.78,330.49,510.49,331.09,510.65,331.24Z" style="fill:#263238"></path><path d="M502,352.9c0-.15-1.71-.45-4.5-.82-.71-.07-1.38-.21-1.5-.69a3.59,3.59,0,0,1,.48-2.09l2.11-5.36c2.92-7.62,5-13.9,4.73-14s-2.93,6-5.86,13.6c-.7,1.88-1.38,3.68-2,5.39a4.07,4.07,0,0,0-.37,2.77,1.79,1.79,0,0,0,1.16,1,4.74,4.74,0,0,0,1.21.17C500.22,353,502,353.06,502,352.9Z" style="fill:#263238"></path><path d="M526.65,376.18S520.11,389.91,500,388v-4.7A50.86,50.86,0,0,0,526.65,376.18Z" style="fill:#ff9a6c"></path><path d="M511.52,321.28c.27.75,3,.4,6.29.8s5.89,1.28,6.32.61c.2-.32-.26-1-1.32-1.76a11.07,11.07,0,0,0-9.61-1.07C512,320.33,511.4,320.92,511.52,321.28Z" style="fill:#263238"></path><path d="M485.2,322.81c.49.62,2.4,0,4.7-.05s4.24.43,4.69-.22c.2-.32-.1-1-.95-1.54a6.83,6.83,0,0,0-7.57.21C485.26,321.86,485,322.5,485.2,322.81Z" style="fill:#263238"></path><path d="M486.74,305.16c1.23-3,4.55-4.81,7.81-5a17.35,17.35,0,0,1,9.28,2.69c12,6.88,18.12,23.5,29.95,30.62,2.91,1.75,6.7.14,9.18,2.46s4.08,6,2.71,9.12a27.78,27.78,0,0,0,4.1-6.9,9.36,9.36,0,0,0-.33-7.79c-1-1.76-2.83-3.11-3.33-5.08-.44-1.74.25-3.56.18-5.35a11.69,11.69,0,0,0-1.84-5.1c-4.64-8.14-11-15.51-19.22-20.09a34.14,34.14,0,0,0-17.65-4.54,26.17,26.17,0,0,0-16.78,6.62c-2.65,2.46-5.43,5-4.06,8.32" style="fill:#263238"></path><path d="M542.67,338.43c.21-.58,10.69-4.34,10.83,6.74.14,10.77-10.79,8.65-10.81,8.34S542.67,338.43,542.67,338.43Z" style="fill:#ffbf9d"></path><path d="M546,349.4s.19.13.51.27a1.91,1.91,0,0,0,1.41,0c1.14-.43,2.09-2.24,2.12-4.19a6,6,0,0,0-.55-2.67,2.19,2.19,0,0,0-1.43-1.43,1,1,0,0,0-1.11.52c-.14.31-.07.52-.13.54s-.23-.18-.15-.62a1.18,1.18,0,0,1,.42-.68,1.4,1.4,0,0,1,1-.29,2.67,2.67,0,0,1,2,1.65,6.47,6.47,0,0,1,.68,3c0,2.17-1.15,4.21-2.71,4.67a2,2,0,0,1-1.73-.27C546,349.66,546,349.42,546,349.4Z" style="fill:#ff9a6c"></path><path d="M547,332.9a5.21,5.21,0,0,1-.65-.37c-.41-.26-1.05-.61-1.82-1.14a37.22,37.22,0,0,1-5.84-5.29,104,104,0,0,1-7.15-9.24,85,85,0,0,0-8.94-11.06,34,34,0,0,0-5.77-4.53,28.16,28.16,0,0,0-6.22-2.81,31.26,31.26,0,0,0-11.48-1.4,29.91,29.91,0,0,0-7.68,1.5c-.89.27-1.55.57-2,.74a5.07,5.07,0,0,1-.7.25,3.76,3.76,0,0,1,.66-.34,19.64,19.64,0,0,1,2-.83,28.06,28.06,0,0,1,7.72-1.66A30.82,30.82,0,0,1,510.71,298a28.9,28.9,0,0,1,6.35,2.83,34.48,34.48,0,0,1,5.86,4.59,82.75,82.75,0,0,1,9,11.15,110.09,110.09,0,0,0,7,9.27,39.78,39.78,0,0,0,5.7,5.36c.74.56,1.36.93,1.75,1.22A3.24,3.24,0,0,1,547,332.9Z" style="fill:#455a64"></path><path d="M544.25,335.94c.17,2.94.31,6.05-1.06,8.66s-4.81,4.39-7.39,2.93c-2.09-1.19-2.72-3.86-3.08-6.24-1-6.86-1.49-13.79-2.58-20.63Z" style="fill:#263238"></path><path d="M489.41,300c0,.06.95-.18,2.69-.23a18.62,18.62,0,0,1,7.17,1.3,23.92,23.92,0,0,1,4.49,2.3,49.62,49.62,0,0,1,4.63,3.51,56,56,0,0,1,9.07,9.72c1.37,1.92,2.59,3.89,3.91,5.72a27.17,27.17,0,0,0,4.34,4.85,48.28,48.28,0,0,0,9.15,6.09c2.77,1.46,5.09,2.47,6.69,3.18l1.85.78a2.81,2.81,0,0,0,.66.24,2.85,2.85,0,0,0-.61-.35l-1.8-.88c-1.57-.77-3.85-1.85-6.58-3.35a49.87,49.87,0,0,1-9-6.12,28.1,28.1,0,0,1-4.23-4.78c-1.29-1.81-2.51-3.79-3.9-5.73a53.9,53.9,0,0,0-9.2-9.79A45.25,45.25,0,0,0,504,303a23.15,23.15,0,0,0-4.61-2.28,18,18,0,0,0-7.33-1.14,13.56,13.56,0,0,0-2,.28A3.12,3.12,0,0,0,489.41,300Z" style="fill:#455a64"></path><path d="M575.87,429.2,608,463.43c5.31,5.65,9.15,10.81,16.67,12.78,5.27,1.38,13.53.66,16.26-2.81,3.74-4.76,5.52-14.52,1.42-20.81s-32.87-34.29-32.87-34.29l-33.62,10.9" style="fill:#ffbf9d"></path><path d="M620.39,426.22S587,386.6,574.29,386.6c0,0-8,14-8.29,21.71s25.69,43.53,25.69,43.53Z" style="fill:#04034E"></path><path d="M584.81,439.1,574.2,386.51l-34.34-.35c-12.65,14.3-25.58,24.55-40.31,8.1l-36.16,14.22,9.4,51.07,109.08-.07C586.12,445.48,584.81,439.1,584.81,439.1Z" style="fill:#04034E"></path><path d="M439.06,459.48c0-2.11,12.11-46,24.33-51L472.83,423l2.66,36.56Z" style="fill:#04034E"></path><path d="M591.69,451.84a6.71,6.71,0,0,1-.89-1c-.55-.66-1.32-1.63-2.26-2.83-1.88-2.42-4.4-5.81-7.19-9.55s-5.38-7.06-7.32-9.42c-1-1.18-1.76-2.13-2.32-2.78a6.81,6.81,0,0,1-.82-1,7.13,7.13,0,0,1,1,.92c.6.61,1.44,1.52,2.45,2.68,2,2.3,4.66,5.6,7.46,9.34s5.26,7.17,7.06,9.64l2.13,2.93A5.7,5.7,0,0,1,591.69,451.84Z" style="fill:#263238"></path><path d="M468.39,460a7,7,0,0,1-.39-1.26c-.22-.82-.5-2-.79-3.52A73.59,73.59,0,0,1,466,443.4a72.66,72.66,0,0,1,.68-11.87c.21-1.51.43-2.72.61-3.55a6.31,6.31,0,0,1,.33-1.29,6.7,6.7,0,0,1-.13,1.32c-.12.84-.28,2.06-.45,3.56a85.77,85.77,0,0,0,.59,23.59c.24,1.49.46,2.7.62,3.53A5.72,5.72,0,0,1,468.39,460Z" style="fill:#263238"></path><path d="M467.37,396.07c0,.13.37.24,1.07.22a7.93,7.93,0,0,0,2.95-.75,12.57,12.57,0,0,0,3.89-2.9,15.67,15.67,0,0,0,3.24-5.54,26.93,26.93,0,0,0,1.37-7.48c.15-2.69.1-5.48,0-8.43-.23-5.9-.93-12.32-1.71-19s-1.5-13-1.79-18.72a108.71,108.71,0,0,1,.18-15.21c.76-8.63,2.58-13.79,2-14-.13-.05-.37.22-.72.79-.18.29-.37.65-.6,1.08s-.43.94-.68,1.52a48.87,48.87,0,0,0-2.84,10.25,83.17,83.17,0,0,0-1.09,15.7c.09,5.92.71,12.38,1.49,19.06s1.58,13,2,18.75c.21,2.86.39,5.61.39,8.11a27.28,27.28,0,0,1-.74,6.74,13.78,13.78,0,0,1-5.16,7.9C468.7,395.49,467.32,395.74,467.37,396.07Z" style="fill:#263238"></path><path d="M503.59,358.18a5,5,0,0,1,4.39-2,4.52,4.52,0,0,1,3.2,1.55,2.83,2.83,0,0,1,.34,3.25,3.35,3.35,0,0,1-3.58,1,10.44,10.44,0,0,1-3.6-1.95,2.91,2.91,0,0,1-.82-.78.91.91,0,0,1,0-1" style="fill:#ff9a6c"></path><path d="M510.36,353.2c-.45,0-.34,3-2.82,5.18s-5.68,2-5.68,2.42c0,.19.73.56,2.08.54a7.48,7.48,0,0,0,4.75-1.86,6.4,6.4,0,0,0,2.17-4.33C510.93,353.9,510.56,353.18,510.36,353.2Z" style="fill:#263238"></path><path d="M562.21,340.87c3.79,13.75.57,32.13,4.32,43.17s6.47,23.3,2.23,34.17l-5.83-12.84a16.48,16.48,0,0,1-1.26,15.9c-3.12,4.61-18.84,8.54-24.42,8.28-5.66-29.82-4.1-52.62,5.67-75.67l7.53,8.33,6.79-2.9Z" style="fill:#263238"></path><path d="M502.76,337.35a20.65,20.65,0,0,1,.48-3.12,12.56,12.56,0,0,1,1.45-3.4,13,13,0,0,1,8.67-6,13,13,0,0,1,6.71.57,11.74,11.74,0,0,1,3.23,1.73,15.11,15.11,0,0,1,1.45,1.22,14.81,14.81,0,0,1,1.25,1.48,12.57,12.57,0,0,1,0,15,13.65,13.65,0,0,1-1.25,1.47,14.07,14.07,0,0,1-1.45,1.23,12,12,0,0,1-3.23,1.73,12.88,12.88,0,0,1-6.71.56,12.89,12.89,0,0,1-8.67-6,12.38,12.38,0,0,1-1.45-3.39,20.66,20.66,0,0,1-.48-3.13.67.67,0,0,0,0,.21c0,.16,0,.37,0,.62a6.51,6.51,0,0,0,.08,1,10.37,10.37,0,0,0,.25,1.35,12.1,12.1,0,0,0,1.4,3.47,12.83,12.83,0,0,0,3.3,3.72,13,13,0,0,0,5.51,2.47,13.18,13.18,0,0,0,6.9-.55,12.35,12.35,0,0,0,3.34-1.77A14.62,14.62,0,0,0,525,346.6a13.34,13.34,0,0,0,1.29-1.51,12.93,12.93,0,0,0,0-15.47A14.39,14.39,0,0,0,525,328.1a15.91,15.91,0,0,0-1.49-1.25,12.08,12.08,0,0,0-3.34-1.77,13.18,13.18,0,0,0-6.9-.55,13,13,0,0,0-5.51,2.47,12.83,12.83,0,0,0-3.3,3.72,12.1,12.1,0,0,0-1.4,3.47,10.24,10.24,0,0,0-.25,1.34,6.63,6.63,0,0,0-.08,1c0,.25,0,.45,0,.61A.67.67,0,0,0,502.76,337.35Z" style="fill:#455a64"></path><path d="M473.67,336.8a21.78,21.78,0,0,1,.49-3.13,12,12,0,0,1,1.45-3.4,12.86,12.86,0,0,1,8.67-6,12.89,12.89,0,0,1,6.71.56,12.32,12.32,0,0,1,3.23,1.73,14,14,0,0,1,1.44,1.23,13.65,13.65,0,0,1,1.25,1.47,12.57,12.57,0,0,1,0,15,13.65,13.65,0,0,1-1.25,1.47,12.83,12.83,0,0,1-1.44,1.23,12,12,0,0,1-3.23,1.73,13,13,0,0,1-6.71.57,13,13,0,0,1-8.68-6,12.19,12.19,0,0,1-1.44-3.4,21.78,21.78,0,0,1-.49-3.12,1.66,1.66,0,0,0,0,.21c0,.16,0,.36,0,.61a6.81,6.81,0,0,0,.09,1A8.9,8.9,0,0,0,474,340a12.16,12.16,0,0,0,1.41,3.47,13.1,13.1,0,0,0,8.8,6.19,13.22,13.22,0,0,0,6.91-.55,12,12,0,0,0,3.33-1.77A13.71,13.71,0,0,0,496,346a14.45,14.45,0,0,0,1.29-1.51,13,13,0,0,0,0-15.47,14.45,14.45,0,0,0-1.29-1.51,13.71,13.71,0,0,0-1.5-1.26,12.3,12.3,0,0,0-3.33-1.77,13.22,13.22,0,0,0-6.91-.55,13.05,13.05,0,0,0-5.5,2.47,12.83,12.83,0,0,0-3.3,3.72,12.16,12.16,0,0,0-1.41,3.47,8.79,8.79,0,0,0-.24,1.35,6.69,6.69,0,0,0-.09,1c0,.25,0,.45,0,.62A1.66,1.66,0,0,0,473.67,336.8Z" style="fill:#455a64"></path><path d="M499.35,335.19s.21-.16.51-.39a2.62,2.62,0,0,1,1.33-.53,2.58,2.58,0,0,1,1.39.32c.34.18.52.35.57.31s-.07-.28-.4-.55a2.27,2.27,0,0,0-3.09.24C499.37,334.91,499.31,335.17,499.35,335.19Z" style="fill:#455a64"></path><path d="M528.26,334.06a80.28,80.28,0,0,0,7.85,1.86,77.11,77.11,0,0,0,7.94,1.45,162.71,162.71,0,0,0-15.79-3.31Z" style="fill:#455a64"></path><path d="M522.29,346.38a2,2,0,0,0,.78-.32,6.82,6.82,0,0,0,1.7-1.54,11.05,11.05,0,0,0,1.72-2.93,11.72,11.72,0,0,0,.75-4.09,12.61,12.61,0,0,0-2.21-7.12,10.24,10.24,0,0,0-1.49-1.73,3.7,3.7,0,0,0-.66-.52,22.41,22.41,0,0,1,1.91,2.41,13.05,13.05,0,0,1,2,7,12,12,0,0,1-.69,4,11.71,11.71,0,0,1-1.59,2.88,7.48,7.48,0,0,1-1.57,1.58C522.55,346.23,522.28,346.35,522.29,346.38Z" style="fill:#fff"></path><path d="M516.59,348.4a4.68,4.68,0,0,0,2.34-.34A4.61,4.61,0,0,0,521,347a12.51,12.51,0,0,0-2.22.7A13.54,13.54,0,0,0,516.59,348.4Z" style="fill:#fff"></path><path d="M486.31,325.54c0,.07.88.08,2.25.37a12.8,12.8,0,0,1,8.5,6.24c.69,1.21.95,2.05,1,2s0-.23-.13-.61a9.51,9.51,0,0,0-.63-1.56,12,12,0,0,0-8.71-6.38,9.84,9.84,0,0,0-1.68-.14A1.92,1.92,0,0,0,486.31,325.54Z" style="fill:#fff"></path><path d="M497.43,340.29a3.51,3.51,0,0,0,.85-2,3.61,3.61,0,0,0-.1-2.19,18.2,18.2,0,0,0-.3,2.12A17.53,17.53,0,0,0,497.43,340.29Z" style="fill:#fff"></path><path d="M526.58,433c.22.14,1.06-.65,2.22-2.34a34.36,34.36,0,0,0,3.82-7.78,61.33,61.33,0,0,0,2.9-12.48,148.46,148.46,0,0,0,1.12-15.45c.17-5.43.32-10.56.72-15.17a84.73,84.73,0,0,1,1.8-12.1c1.56-6.79,3.65-10.68,3.09-11-.23-.14-1,.67-2.18,2.38a34.82,34.82,0,0,0-3.7,7.83,63.74,63.74,0,0,0-2.78,12.5c-.62,4.76-.89,10-1.05,15.45s-.35,10.54-.78,15.15A81.6,81.6,0,0,1,529.84,422C528.19,428.79,526,432.65,526.58,433Z" style="fill:#263238"></path><path d="M550.78,353s.25.22.61.66a4.27,4.27,0,0,1,.88,2.18,3.81,3.81,0,0,1-1.16,3.17,4.19,4.19,0,0,1-3.94,1.1,4.49,4.49,0,0,1-3.1-2.7,4.89,4.89,0,0,1,0-3.44,3.26,3.26,0,0,1,1.45-1.82,3.08,3.08,0,0,1,.85-.22.46.46,0,0,0-.23,0,1.5,1.5,0,0,0-.68.13,3.28,3.28,0,0,0-1.66,1.85,5.12,5.12,0,0,0-.09,3.68,4.81,4.81,0,0,0,3.36,3,4.38,4.38,0,0,0,2.41-.06,4.8,4.8,0,0,0,1.9-1.17,4.3,4.3,0,0,0,1-1.72,3.91,3.91,0,0,0,.14-1.74,4.11,4.11,0,0,0-1-2.25A2.2,2.2,0,0,0,550.78,353Z" style="fill:#e0e0e0"></path><path d="M619.31,382.6l-1-13-2.67-16.47-4.14-13.49s-.84-1.28-2.48-.07.69,8.57.69,8.57l.88,5.62s-.55,4.47-.92,4.14-2.29-7.84-2.29-7.84l-5-16a2.21,2.21,0,0,0-2.9-.83c-1.09.47-1.65,2.18-1.24,4.59s1.91,6.4,2.17,7.76,2,9.24,2,9.24L594.92,337s-1.68-5.85-4.09-4.72-.27,5.22,0,7.06,5.29,13.92,5.36,17.43-.67,1.83-.67,1.83l-3.7-10c-1.63-4.4-3.64-6.84-5.65-7S588,351.74,588,351.74l4.94,14.3-.33,4.75-3.74-3.85s-.69-5.49-4.4-7.41-4.32.75-4.32.75l8.76,20.6c1.9,3.32,12.51,9,12.51,9l4.08,21.16,22.17-3.69Z" style="fill:#ffbf9d"></path><path d="M610.77,375.74a24.83,24.83,0,0,1-3.19-2.13c-1.91-1.25-4.91-3-8.38-2.44a6.56,6.56,0,0,0-3.82,1.86l-.33.36-.36-.39c-1.61-1.69-3.29-3.14-4.32-4.2s-1.62-1.78-1.52-1.86a13.17,13.17,0,0,1,1.9,1.45,61.43,61.43,0,0,1,4.66,4.06l-.7,0a7.17,7.17,0,0,1,4.34-2.2,9.91,9.91,0,0,1,5.26.67,15.94,15.94,0,0,1,3.67,2.16A11.23,11.23,0,0,1,610.77,375.74Z" style="fill:#ff9a6c"></path><polygon points="613.98 458.37 602.13 392.44 620.08 384.65 644.3 457.33 613.98 458.37" style="fill:#ffbf9d"></polygon><path d="M615.66,459a16.33,16.33,0,0,1-.8-2.66c-.46-1.72-1.08-4.23-1.81-7.34-1.46-6.21-3.34-14.83-5.28-24.37s-3.57-18.22-4.71-24.49l-1.3-7.45a16.46,16.46,0,0,1-.36-2.75,17.22,17.22,0,0,1,.69,2.69l1.57,7.39c1.29,6.39,3,15,5,24.44s3.72,18,5,24.41c.63,3,1.15,5.51,1.55,7.4A19.85,19.85,0,0,1,615.66,459Z" style="fill:#ff9a6c"></path></g><g id="freepik--character-3--inject-3"><path d="M579.79,123.46A27.87,27.87,0,0,0,569,125.61a14,14,0,0,1-5.4,1.13l-7.08-.42-.35-59.44a9.67,9.67,0,0,0-9.92-9.38l-7.86,0H369.48a9.49,9.49,0,0,0-9.6,9.38V126h-4.22a12.94,12.94,0,0,1-5.64-1.32c-4.46-2.16-12.79-4.94-18.46-4-11.27,1.87-22.71,13.21-22.71,24.38,0,18.73,14.67,30.47,29.95,30.47a26.27,26.27,0,0,0,10.44-2.16,10.52,10.52,0,0,1,4.63-1.11h6v58.47a9.5,9.5,0,0,0,9.6,9.39H545.94a9.66,9.66,0,0,0,9.92-9.39l.32-60.81,6.2.43a14.15,14.15,0,0,1,5.83,1.32,28,28,0,0,0,16.2,2.15c11.64-1.87,20.72-11,22-22.11C608.18,136.38,595.58,123.46,579.79,123.46Z" style="fill:#ebebeb"></path><path d="M579.79,123.46s.62,0,1.82.07l1,0c.38,0,.78.11,1.22.18l1.44.21c.52.08,1.05.25,1.62.39a26.64,26.64,0,0,1,16.35,12.07,23,23,0,0,1,1.56,3.14,25.48,25.48,0,0,1,1.17,3.52c.17.61.24,1.25.36,1.89.06.32.11.65.17,1s0,.66.07,1c0,.67.09,1.34.1,2l-.12,2.07a23.76,23.76,0,0,1-2.31,8.39,25.41,25.41,0,0,1-5.64,7.57,27.62,27.62,0,0,1-19.27,7.3,28,28,0,0,1-11.23-2.53,14,14,0,0,0-5.77-1.29l-6.18-.43.18-.16q-.06,14.5-.14,30.82,0,8.13-.08,16.7,0,4.28,0,8.66c0,1.46,0,2.93,0,4.4a9.25,9.25,0,0,1-1,4.39,10.06,10.06,0,0,1-7.19,5.26,30,30,0,0,1-4.63.18H479.37l-87.69,0H371.37c-1,0-1.95,0-3,0A10.07,10.07,0,0,1,363,237.9a9.51,9.51,0,0,1-3.1-5.11,12.71,12.71,0,0,1-.24-3V172.21l.26.26-6.19,0a8.62,8.62,0,0,0-3,.55c-1,.35-1.95.83-3,1.18a26.93,26.93,0,0,1-6.38,1.41,21.24,21.24,0,0,1-3.29.08,25.91,25.91,0,0,1-3.3-.27,30.09,30.09,0,0,1-22.44-15.33,31.41,31.41,0,0,1-3.61-13.32,18.1,18.1,0,0,1,.69-6.86,23.15,23.15,0,0,1,1.19-3.23,29.2,29.2,0,0,1,1.68-3,30.59,30.59,0,0,1,2-2.78c.76-.85,1.48-1.73,2.32-2.5a30.19,30.19,0,0,1,5.31-4.2A27.43,27.43,0,0,1,328,121.3a18.23,18.23,0,0,1,6.62-1.09,39.74,39.74,0,0,1,12.86,3c1,.4,2,.86,3,1.32a13.52,13.52,0,0,0,3,1,16.1,16.1,0,0,0,3.19.2h3.23l-.26.25q0-29.11,0-56.66c0-1.15,0-2.27.07-3.45a9,9,0,0,1,1-3.33A9.84,9.84,0,0,1,365.81,58a9.73,9.73,0,0,1,3.37-.68c1.14,0,2.25,0,3.37,0h32.78l93.66,0,39.45,0h6.78a18.46,18.46,0,0,1,2.23.07,10.16,10.16,0,0,1,7.3,4.36,9.21,9.21,0,0,1,1.49,3.94c.15,1.41.07,2.76.1,4.11,0,2.69,0,5.33,0,7.89.1,20.55.17,37,.23,48.61l-.08-.08,5.64.34a13.18,13.18,0,0,0,4.8-.34c1.44-.36,2.66-1,3.84-1.36a27.16,27.16,0,0,1,7.54-1.41c1,0,1.44,0,1.44,0l-1.43.05a29.18,29.18,0,0,0-4.33.58,30.27,30.27,0,0,0-3.19.88c-1.17.38-2.39,1-3.84,1.38a13.16,13.16,0,0,1-4.84.37l-5.64-.32h-.07v-.07c-.09-11.63-.2-28.06-.35-48.6,0-2.57,0-5.21-.05-7.9,0-1.34,0-2.73-.11-4.07a8.92,8.92,0,0,0-1.44-3.81,9.86,9.86,0,0,0-7.08-4.21,17.78,17.78,0,0,0-2.2-.07H543l-4.54,0-39.45,0-93.66,0H372.55c-2.24.05-4.52-.22-6.56.67a9.35,9.35,0,0,0-4.84,4.31,8.8,8.8,0,0,0-1,3.16c-.1,1.1-.05,2.27-.06,3.4q0,27.51,0,56.66v.25h-3.48a15.76,15.76,0,0,1-3.28-.2,13.29,13.29,0,0,1-3.15-1c-1-.47-2-.91-3-1.31a39.26,39.26,0,0,0-12.68-3,17.54,17.54,0,0,0-6.44,1.07,26.86,26.86,0,0,0-6,2.86,30.24,30.24,0,0,0-5.23,4.14,33.19,33.19,0,0,0-2.28,2.46,30.87,30.87,0,0,0-2,2.73,25.56,25.56,0,0,0-1.65,2.93,24,24,0,0,0-1.17,3.16,17.77,17.77,0,0,0-.67,6.69,30.89,30.89,0,0,0,3.56,13.1,29.54,29.54,0,0,0,22.05,15.06,25.13,25.13,0,0,0,3.24.27,20.63,20.63,0,0,0,3.24-.08,25.5,25.5,0,0,0,6.25-1.39c1-.34,2-.81,3-1.17a9.41,9.41,0,0,1,3.18-.58l6.2,0h.26v.26q0,24.69,0,48.64v8.94a12.54,12.54,0,0,0,.23,2.89,9.06,9.06,0,0,0,2.93,4.83,9.42,9.42,0,0,0,5.17,2.25c.94.08,1.93.05,2.91.06h20.31l87.69,0h63.86a29.72,29.72,0,0,0,4.55-.17,9.63,9.63,0,0,0,6.91-5,8.76,8.76,0,0,0,1-4.2c0-1.48,0-2.94,0-4.4q0-4.38,0-8.66,0-8.56.09-16.71c.06-10.85.12-21.14.18-30.81v-.18h.18l6.16.44a14.28,14.28,0,0,1,5.89,1.32A27.64,27.64,0,0,0,579.35,174a27.31,27.31,0,0,0,19.09-7.19,25.25,25.25,0,0,0,5.6-7.48,23.7,23.7,0,0,0,2.3-8.31l.12-2.05c0-.67-.06-1.34-.09-2,0-.33,0-.66-.07-1s-.11-.64-.16-1c-.12-.63-.18-1.27-.35-1.87a24.62,24.62,0,0,0-1.16-3.49,21.67,21.67,0,0,0-1.54-3.13,25.64,25.64,0,0,0-8.25-8.56,26,26,0,0,0-8-3.51c-.57-.14-1.1-.32-1.61-.4l-1.44-.23c-.44-.06-.84-.14-1.21-.18l-1-.06Z" style="fill:#263238"></path><path d="M542.12,223.38c-.71-1.64-2.48-6.61-3.8-7.82-5.94-5.41-11.78-6.77-18.32-11.46l1.32,52.83c1.95,2.83,6.11,2.5,9.34,1.31s5.65-3.93,7.32-6.93a41.2,41.2,0,0,0,5.52-19.19A26.13,26.13,0,0,0,542.12,223.38Z" style="fill:#04034E"></path><path d="M491.12,169.72c-6.28-3.85-26.85-7.51-31.47-7.92l-5.76-4.72-40.58-2.45-6,8.21-20.8,5.53a28,28,0,0,0-14.05,8.82l-12.38,9.75,0,42.17c0,6.49,3.31,10.82,9.8,10.82l124.69-.31c7.63,13.4,17.3,20.53,33.63,19.37l-2.43-54.39S499.94,175.13,491.12,169.72Z" style="fill:#04034E"></path><path d="M495,190a2.89,2.89,0,0,1,.08.5c0,.39.09.86.14,1.44.12,1.25.25,3.07.38,5.31.26,4.49.45,10.71.35,17.57s-.44,13.07-.71,17.55c-.15,2.18-.27,4-.37,5.31q-.07.87-.12,1.44a3.18,3.18,0,0,1-.08.51,1.77,1.77,0,0,1,0-.51c0-.39,0-.87,0-1.45.05-1.33.12-3.13.2-5.32.18-4.49.45-10.69.56-17.54s0-13.05-.2-17.54c-.08-2.19-.16-4-.21-5.32,0-.58,0-1.05,0-1.44A1.56,1.56,0,0,1,495,190Z" style="fill:#263238"></path><path d="M391.84,227.9c-.14,0-2.87-9.26-6.11-20.76s-5.74-20.86-5.6-20.9,2.87,9.25,6.11,20.76S392,227.86,391.84,227.9Z" style="fill:#263238"></path><path d="M445.58,186.65a1.12,1.12,0,0,1-.27-.11l-.78-.38c-.67-.35-1.65-.88-2.86-1.6a62.34,62.34,0,0,1-9.44-6.94l.37-.21a49.27,49.27,0,0,1,.62,12.08l0,.45-.36-.25-1.93-1.34L429,186.92a83.48,83.48,0,0,1-16.37-16.57c-1.78-2.4-3.07-4.45-3.94-5.87-.43-.72-.75-1.28-1-1.67a2.33,2.33,0,0,1-.3-.6,3.57,3.57,0,0,1,.39.55l1,1.61c.92,1.39,2.26,3.39,4.06,5.76a88,88,0,0,0,16.39,16.37l1.94,1.43,1.91,1.33-.41.2a49.61,49.61,0,0,0-.54-12l-.11-.64.48.43a68.46,68.46,0,0,0,9.27,7.06c1.19.75,2.15,1.31,2.8,1.7A6,6,0,0,1,445.58,186.65Z" style="fill:#263238"></path><path d="M459.16,161.8a1.78,1.78,0,0,1,.07.49c0,.32.06.79.09,1.4,0,1.21.07,3,0,5.15a67,67,0,0,1-.79,7.61c-.23,1.43-.51,2.91-.87,4.44a15.19,15.19,0,0,1-1.79,4.57,7.12,7.12,0,0,1-2.29,2.28l-.4.24v-.47c.09-4,.17-7.75.24-10.89l.41.09a44.25,44.25,0,0,1-3.5,6.39,14.93,14.93,0,0,1-1.23,1.6,3.65,3.65,0,0,1-.52.49,2.68,2.68,0,0,1,.42-.57c.27-.37.68-.91,1.13-1.65a54.45,54.45,0,0,0,3.31-6.43l.42-.95,0,1c0,3.14-.09,6.85-.14,10.89l-.39-.23a6.67,6.67,0,0,0,2.12-2.11,14.81,14.81,0,0,0,1.72-4.41c.36-1.51.66-3,.9-4.39.48-2.83.75-5.4.9-7.56s.17-3.92.18-5.13A17.66,17.66,0,0,1,459.16,161.8Z" style="fill:#263238"></path><path d="M527.77,247.91a9.55,9.55,0,0,1-1.45.45,22.53,22.53,0,0,1-4.11.63,21.49,21.49,0,0,1-6.15-.44,18,18,0,0,1-3.48-1.11,13.35,13.35,0,0,1-3.38-2.05,10.4,10.4,0,0,1-2.39-3.15,16.24,16.24,0,0,1-1.3-3.43,24.61,24.61,0,0,1-.72-6.13c0-1.75.1-3.16.17-4.14a9.15,9.15,0,0,1,.18-1.51,8.25,8.25,0,0,1,0,1.52c0,1-.06,2.39,0,4.13a25.85,25.85,0,0,0,.81,6,16.61,16.61,0,0,0,1.29,3.32,10,10,0,0,0,2.28,3,16,16,0,0,0,6.63,3.09,22.84,22.84,0,0,0,6,.54A51.26,51.26,0,0,0,527.77,247.91Z" style="fill:#263238"></path><path d="M510.45,208.83c.06.08-1.29,1-3.17,2.73a28.12,28.12,0,0,0-3,3.35,33.79,33.79,0,0,0-3,4.67,32.34,32.34,0,0,0-2,5.14,29.53,29.53,0,0,0-.92,4.43c-.32,2.56-.23,4.17-.34,4.18a5.46,5.46,0,0,1-.11-1.13,11.22,11.22,0,0,1,0-1.33c0-.52,0-1.11.1-1.76a27.42,27.42,0,0,1,.83-4.52,29.84,29.84,0,0,1,2-5.25,31.57,31.57,0,0,1,3-4.73,27.05,27.05,0,0,1,3.17-3.32,14.76,14.76,0,0,1,1.36-1.12,9.44,9.44,0,0,1,1.08-.77A4.69,4.69,0,0,1,510.45,208.83Z" style="fill:#263238"></path><path d="M510.93,209.11l9-60.54,16.31,2.49s3.86,50.89,3.15,66.37c-.22,4.84.11,12.95-3.17,18.24-5.59,9-22,9.05-27.08-.28h0c-2.65-4-1.51-9.6-.94-12.46Z" style="fill:#ae7461"></path><path d="M537.65,154.63l2.74-12L542.63,127l.09-13.31s-.4-1.38-2.21-.75-1.78,7.91-1.78,7.91l-.79,5.31s-1.75,3.87-2,3.47.15-7.7.15-7.7l.08-15.84a2.07,2.07,0,0,0-2.37-1.56c-1.11.12-2.09,1.5-2.4,3.79s-.09,6.29-.24,7.6-.76,8.89-.76,8.89l-1.79-18.08s.14-5.74-2.33-5.4-1.71,4.63-1.95,6.37.82,14-.1,17.21-1.11,1.46-1.11,1.46l-.51-10c-.23-4.42-1.34-7.18-3.1-7.84s-1.25,9.58-1.25,9.58l.4,14.26L517,136.52,514.77,132s.93-5.14-1.85-7.91-4.08-.53-4.08-.53l2.05,21c.77,3.52,8.67,11.63,8.67,11.63l-2.29,20.2,20.89,2.87Z" style="fill:#ae7461"></path><path d="M531.83,146.53a22.45,22.45,0,0,1-2.27-2.82c-1.36-1.66-3.56-4-6.82-4.53a6.08,6.08,0,0,0-3.94.61l-.39.22-.22-.44c-1-2-2.07-3.75-2.69-5s-.94-2.06-.84-2.09a10.81,10.81,0,0,1,1.3,1.83,57.68,57.68,0,0,1,3,5l-.62-.22a6.68,6.68,0,0,1,4.51-.78,9.32,9.32,0,0,1,4.52,2.08,14.84,14.84,0,0,1,2.68,3A10.56,10.56,0,0,1,531.83,146.53Z" style="fill:#6f4439"></path><path d="M413.21,226.59c-2.87-2.52-7.49,3.54-7.49,3.54-.9-1.88-6.88-1.67-7.8,1-.6-1.39-.49-2.24-1.74-3.09a4.8,4.8,0,0,0-4.31-.69,3.45,3.45,0,0,0-2.27,3.53,5.8,5.8,0,0,0-6.25-2,5.83,5.83,0,0,0-3.84,4.58,2.36,2.36,0,0,0-.07.79.77.77,0,0,0,.15.33c.31.48.7.89,1,1.39.1.19.2.38.29.58a10.3,10.3,0,0,1,.84,2.82,10.5,10.5,0,0,0,.19,1.37,4.7,4.7,0,0,0,.46.78c.89,1.7.9,3.81,1,5.68.12,2.1.34,4.33,1.6,6s3.91,2.54,5.53,1.18a2.75,2.75,0,0,0,2.32,2.82,4,4,0,0,0,3.57-1.46,7.39,7.39,0,0,0,1.52-3.67,3.05,3.05,0,0,0,3.29,2.66,4.68,4.68,0,0,0,3.63-2.69,11,11,0,0,0,.93-4.61c0-1.57.72-6.11,1-7.66,0,0,2.59,0,3.5,0l.68-1.71c1-2.7,1.84-4.42,2.59-6.86C414.09,229.44,414.4,227.64,413.21,226.59Z" style="fill:#ae7461"></path><path d="M374,232.78a4.55,4.55,0,0,0-3.47,1.5c-.92,1.24-.86,4.12-.61,5.65,0,0,4.49,0,4.49,0h1.12c.88.52.86,2.38,1.28,3.31a3.46,3.46,0,0,0,4.53,1.48,4.64,4.64,0,0,0,2.43-4.38,7.19,7.19,0,0,0-2.25-4.67A10,10,0,0,0,374,232.78Z" style="fill:#ae7461"></path><path d="M389.58,230.39c.34,0,.81,5.36,1.07,12s.18,12-.16,12.06-.82-5.36-1.07-12S389.24,230.4,389.58,230.39Z" style="fill:#6f4439"></path><path d="M397.94,230.79c.32,0,1.19,4.82,1.2,10.88s-.82,10.92-1.14,10.88-.06-4.89-.09-10.88S397.59,230.83,397.94,230.79Z" style="fill:#6f4439"></path><path d="M406.1,231.18c.34,0,.85,4,.66,9s-.6,9-.92,9-.5-4.06-.31-9S405.77,231.21,406.1,231.18Z" style="fill:#6f4439"></path><path d="M376.61,233.39c0-.15.83-.42,2.12,0a6.76,6.76,0,0,1,3.65,3.57,13.59,13.59,0,0,1,1.26,4.87c0,1.5-1.05,2-1.1,1.84s.44-.69.24-1.79a24.58,24.58,0,0,0-1.5-4.39,7.32,7.32,0,0,0-2.91-3.31C377.38,233.64,376.61,233.58,376.61,233.39Z" style="fill:#6f4439"></path><path d="M440.7,39.5a8,8,0,0,0-9.09-6.85,10.2,10.2,0,0,0-13.49-4.11c-2.18,1.21-3.83,3.21-6,4.51s-4.45,1.79-6.61,2.83-4.23,2.82-4.5,5.2c-.3,2.65,1.8,5.1,4.28,6.09s5.23.85,7.89.71a2.76,2.76,0,0,0-.81,3.56,5.55,5.55,0,0,0,3.06,2.47,12.14,12.14,0,0,0,12.45-2.3l5-3.82A8,8,0,0,0,440.7,39.5Z" style="fill:#263238"></path><path d="M428.26,56.14a2.63,2.63,0,0,1-3.51-.06,3.56,3.56,0,0,1-.85-3.58,5.62,5.62,0,0,1,2.38-3,13.65,13.65,0,0,1,3.56-1.5,24.54,24.54,0,0,1,5.87-1.11,4.75,4.75,0,0,1,2.09.25,2,2,0,0,1,1.27,1.57c.08,1-.78,1.78-1.58,2.37A62.27,62.27,0,0,1,428,56.88" style="fill:#04034E"></path><path d="M425.34,55.64c-4.72-5.27-16.47-4.57-19.28-1.15a9,9,0,0,0-11.76,3.82L381.79,61c-2.13.45-4.37.95-6,2.37s-2.44,4.11-1.1,5.83c-4.41,1.12-6.18,7.66-2.94,10.84a4.74,4.74,0,0,0,.66,6.86,47.35,47.35,0,0,0-8.15,13.86c-.79,2.1-1.44,4.46-.67,6.58s3.54,3.59,5.37,2.28a5.56,5.56,0,0,0-.3,6c-2.11,0-2.77,3.3-1.32,4.84s3.8,1.73,5.91,1.69,4.4-.12,6.13,1.09a1.88,1.88,0,0,1-.7,1.34,8.7,8.7,0,0,0-2,11.83l.69,1c1.21,1.75,4.23,3.36,6.11,4.36,4.76,2.53,7.61,2.07,12.94,2.88-1.48,3.43,7.13,11.12,17.1,3.7,19.75,5.45,34,7.57,54.49,7.77,2.92,0,6.44-.34,7.75-2.95a7.28,7.28,0,0,0,6.7-2.14,21.51,21.51,0,0,0,4-6.16,12.73,12.73,0,0,0,9.25-11.41,15.75,15.75,0,0,0,6-11.15c4.93-1.47,7.69-7.83,5.38-12.43a55.69,55.69,0,0,0-6-17.3c3.36-.7,4.65-5.21,3.3-8.36s-4.39-5.19-7.27-7c2.5.69,4.7-2.45,4.12-5s-2.83-4.29-5.05-5.64a46.68,46.68,0,0,0-10.35-4.7c-1.16-4.42-6.76-9.49-10.88-11.47-16.6-8-28.26-10.08-49.61,5.33" style="fill:#263238"></path><path d="M412.51,82.36c-.23-3.5-.81-7,2.66-7.5l35.41-10.67c11.42-1.73,19.69,12,20.93,23.53,1.39,12.75,2.58,28.38,1.49,38a29.22,29.22,0,0,1-19.21,24.52s.44,11.72.44,11.72c-1.47,9-3.75,19.17-7.41,22.78-12.53-2.34-33-29.88-33-29.88Z" style="fill:#ae7461"></path><path d="M453,116.89c0-.15,1.61-.51,4.26-1,.68-.1,1.31-.27,1.4-.73a3.39,3.39,0,0,0-.54-2q-1.07-2.4-2.23-5.06c-3.11-7.2-5.39-13.14-5.1-13.26s3.05,5.62,6.16,12.82l2.15,5.1a3.9,3.9,0,0,1,.47,2.63,1.67,1.67,0,0,1-1.07,1,4.54,4.54,0,0,1-1.14.22C454.66,117,453,117,453,116.89Z" style="fill:#263238"></path><path d="M453.79,150.23s-10.44-.67-23.58-7.78c0,0,4.46,12.12,23.75,13.59Z" style="fill:#6f4439"></path><path d="M441.67,87.37c-.23.74-2.89.52-6,1s-5.56,1.48-6,.85c-.19-.3.21-1,1.19-1.74A10.53,10.53,0,0,1,440,86.08C441.17,86.49,441.77,87,441.67,87.37Z" style="fill:#263238"></path><path d="M467.14,86.94c-.44.62-2.29.08-4.48.15s-4,.59-4.49,0c-.21-.3.06-.92.85-1.52a6.13,6.13,0,0,1,3.6-1.15,6.21,6.21,0,0,1,3.63,1C467.05,86,467.33,86.63,467.14,86.94Z" style="fill:#263238"></path><path d="M480.15,96.93A13.24,13.24,0,0,0,477,88.67a48.12,48.12,0,0,1-3.56-3.43c-2.17-2.84-1.86-6.78-2.78-10.23a14.54,14.54,0,0,0-9-9.75C458,64,454,64.16,450.57,62.37c-2.5-1.33-4.4-3.63-7-4.8-5-2.29-10.82.29-15.55,3.11-.94,3.75,1.44,7,3.74,10.12a13.42,13.42,0,0,0,9.87,5.38c3,.18,6.5-.5,8.61,1.64s1.36,6.21,3.19,8.79c2.61,3.69,8.53,2.28,12.43,4.56,3,1.76,4.28,5.36,5.8,8.5s4.14,6.41,7.62,6.24A39.39,39.39,0,0,0,480.15,96.93Z" style="fill:#263238"></path><path d="M435.54,67.51a67.89,67.89,0,0,0-25.71,4.66c-2.43,1-4.95,2.16-6.33,4.37-1.22,1.95-1.37,4.36-1.34,6.66.09,7.19,3,16,5.74,22.64l9,5.36c6.92-1.64,3.73-13.57,3.39-19.56a14.12,14.12,0,0,0,8.25-12.48A15.65,15.65,0,0,0,435.54,67.51Z" style="fill:#263238"></path><path d="M416.76,108.62c-.28-4.11-5.33-4.91-8.86-2.78-1.94,1.16-3.4,3.46-3.15,7.83.68,11.64,12.23,8.56,12.23,8.22S417.08,113.43,416.76,108.62Z" style="fill:#ae7461"></path><path d="M413.17,117.69c-.06,0-.2.15-.53.33a2.07,2.07,0,0,1-1.52.12c-1.25-.38-2.4-2.27-2.58-4.37a6.63,6.63,0,0,1,.4-2.93,2.35,2.35,0,0,1,1.44-1.65,1,1,0,0,1,1.22.49c.18.31.12.55.18.57s.24-.21.12-.69a1.32,1.32,0,0,0-.5-.7,1.54,1.54,0,0,0-1.14-.23,2.84,2.84,0,0,0-2,1.92,6.93,6.93,0,0,0-.52,3.29c.21,2.34,1.54,4.47,3.25,4.86a2.19,2.19,0,0,0,1.84-.42C413.16,118,413.21,117.71,413.17,117.69Z" style="fill:#6f4439"></path><path d="M411.88,122.59s0,0,0,.15a1.62,1.62,0,0,1-.15.44,2.72,2.72,0,0,1-1.35,1.21,7.2,7.2,0,0,1-2.88.61,10.22,10.22,0,0,1-1.87-.12,7.11,7.11,0,0,1-2-.62l.14-.07a5.79,5.79,0,0,1-9.22,3.69l.2,0a2.38,2.38,0,0,1-1.53,1,3.36,3.36,0,0,1-1.88-.15,3.1,3.1,0,0,1-1.52-1.23,4,4,0,0,1-.59-1.92,5.94,5.94,0,0,1,1.26-3.89,17.41,17.41,0,0,1,3.07-3l0,.27a4.08,4.08,0,0,1-1.85-2.76,6,6,0,0,1,.33-3.43,9.43,9.43,0,0,1,2-2.91,28.08,28.08,0,0,1,2.76-2.33l0,.26a4.4,4.4,0,0,1-1.15-3.38,6.35,6.35,0,0,1,1.31-3.45c1.5-1.91,3.67-3,5.68-4l-.1.2a7.73,7.73,0,0,1,8.39-9.55l-.18.2a6.7,6.7,0,0,1,1.57-5.67,6.57,6.57,0,0,1,4.92-2.42l-.14.15a6.52,6.52,0,0,1,2.63-5.08,6.41,6.41,0,0,1,4.87-1.35l-.13.11a6.39,6.39,0,0,1,.94-3,8.31,8.31,0,0,1,1.76-2.13,6.64,6.64,0,0,1,4-1.72l.44,0c.14,0,.28,0,.41,0a5.24,5.24,0,0,1,.74.08,10.19,10.19,0,0,1,1.11.31l.65.28.22.1a.9.9,0,0,1-.23-.07l-.66-.25a11.05,11.05,0,0,0-1.11-.28,5.37,5.37,0,0,0-.72-.06c-.13,0-.27,0-.41,0l-.43,0a6.65,6.65,0,0,0-3.87,1.73,8,8,0,0,0-1.7,2.11,6.17,6.17,0,0,0-.89,2.88v.14l-.13,0a6.49,6.49,0,0,0-7.17,6.2V80h-.15a6.29,6.29,0,0,0-4.68,2.33A6.35,6.35,0,0,0,411,87.75l.05.23-.23,0a7.39,7.39,0,0,0-8,9.14l0,.14-.13.06c-2,1-4.12,2-5.55,3.87a6,6,0,0,0-1.24,3.27,4,4,0,0,0,1.05,3.1l.14.15-.16.12c-1.89,1.45-3.8,3-4.68,5.09a5.64,5.64,0,0,0-.32,3.24,3.77,3.77,0,0,0,1.69,2.54l.2.12-.18.15a16.77,16.77,0,0,0-3,2.92,5.69,5.69,0,0,0-1.22,3.68,3.14,3.14,0,0,0,1.91,2.9,2.58,2.58,0,0,0,3.08-.74l.08-.13.12.09a5.57,5.57,0,0,0,8.86-3.5l0-.13.12.06a6.87,6.87,0,0,0,2,.62,9.88,9.88,0,0,0,1.84.14,7.18,7.18,0,0,0,2.83-.55,2.7,2.7,0,0,0,1.35-1.14C411.83,122.8,411.86,122.58,411.88,122.59Z" style="fill:#455a64"></path><path d="M367.52,110.14a4,4,0,0,1-.44-.7,6,6,0,0,1,.33-6,6.2,6.2,0,0,1,4.22-2.69l-.1.14a8,8,0,0,1,1.05-5.75,7.71,7.71,0,0,1,2.28-2.42,18.17,18.17,0,0,1,3.18-1.5,6,6,0,0,0,1.52-.91,3.9,3.9,0,0,0,1.07-1.43c.51-1.12.68-2.43,1.33-3.64a7.1,7.1,0,0,1,7.09-3.52l-.2.2a9.34,9.34,0,0,1,10.33-10.58l-.19.2a8.19,8.19,0,0,1,12.73-7.67l-.18,0a11.11,11.11,0,0,1,4.06-2.48,16.21,16.21,0,0,1,4.18-1,19.39,19.39,0,0,1,6.9.46,13.82,13.82,0,0,1,4.11,1.7,8,8,0,0,1,.94.69,3.36,3.36,0,0,1,.31.26s-.44-.34-1.3-.87a14.39,14.39,0,0,0-4.1-1.61,19.65,19.65,0,0,0-6.83-.4,16.78,16.78,0,0,0-4.11,1,10.84,10.84,0,0,0-3.95,2.44l-.09.09-.1-.07a7.87,7.87,0,0,0-12.22,7.38l0,.22-.22,0a9,9,0,0,0-9.94,10.18l0,.23-.23,0a6.72,6.72,0,0,0-6.74,3.33c-.63,1.13-.8,2.44-1.34,3.62a4.39,4.39,0,0,1-1.15,1.54,6.52,6.52,0,0,1-1.6.94A19.06,19.06,0,0,0,375,93a7.64,7.64,0,0,0-2.21,2.33,7.77,7.77,0,0,0-1.05,5.55l0,.13h-.12a6,6,0,0,0-4.1,2.56,5.75,5.75,0,0,0-1,3.54,5.87,5.87,0,0,0,.55,2.29C367.36,109.9,367.53,110.13,367.52,110.14Z" style="fill:#455a64"></path><path d="M478.88,113.28a1.06,1.06,0,0,1-.05-1,2.31,2.31,0,0,1,.68-1,3.89,3.89,0,0,1,1.44-.72,6.67,6.67,0,0,0,1.82-.76,3.66,3.66,0,0,0,1.31-1.87,7.17,7.17,0,0,0,.29-2.66c0-1-.19-2-.19-3.07,0-2.21.91-4.45,1.48-6.89a9.59,9.59,0,0,0,.15-3.82,4.65,4.65,0,0,0-2.11-3.28,17.48,17.48,0,0,0-4.08-1.38,7.09,7.09,0,0,1-2.09-1,4.72,4.72,0,0,1-1.47-1.84,22,22,0,0,1-1.22-4.59,8,8,0,0,0-.81-2.2,3.56,3.56,0,0,0-1.72-1.51,13,13,0,0,0-3.22-.44,5,5,0,0,1-1.63-.41,3.23,3.23,0,0,1-1.29-1.08,11.36,11.36,0,0,1-1.22-3,7.22,7.22,0,0,0-1.46-2.63,7,7,0,0,0-5.07-2.42,7.15,7.15,0,0,0-4.94,1.79l-.16.14-.08-.19a11.09,11.09,0,0,0-6.92-6,10.12,10.12,0,0,0-3.89-.33,9.23,9.23,0,0,0-3.2.89,8.18,8.18,0,0,0-3.4,3.12,8.82,8.82,0,0,0-.58,1.1c-.05.12-.1.21-.14.29l-.05.09s0,0,0-.1l.12-.3a7.09,7.09,0,0,1,.54-1.12,8.06,8.06,0,0,1,3.4-3.24,9.51,9.51,0,0,1,3.26-.95,10.38,10.38,0,0,1,4,.31,11.33,11.33,0,0,1,7.12,6.08l-.24,0a7.54,7.54,0,0,1,5.16-1.89,7.46,7.46,0,0,1,6.85,5.27,10.91,10.91,0,0,0,1.18,2.88A3.41,3.41,0,0,0,469.13,75a13.26,13.26,0,0,1,3.31.46,3.88,3.88,0,0,1,1.89,1.66,7.9,7.9,0,0,1,.85,2.3A22.87,22.87,0,0,0,476.37,84a4.43,4.43,0,0,0,1.37,1.71,6.78,6.78,0,0,0,2,.93A17.54,17.54,0,0,1,483.87,88a4.48,4.48,0,0,1,1.53,1.53,6,6,0,0,1,.72,2,9.84,9.84,0,0,1-.18,3.95c-.59,2.47-1.52,4.67-1.51,6.82,0,1.06.13,2.08.17,3.06a7.35,7.35,0,0,1-.33,2.73,3.78,3.78,0,0,1-1.41,2,6.77,6.77,0,0,1-1.87.75,3.78,3.78,0,0,0-1.41.67,2.17,2.17,0,0,0-.68.91A1.3,1.3,0,0,0,478.88,113.28Z" style="fill:#455a64"></path><path d="M501.47,95.25l-.12-.22c-.08-.16-.18-.38-.32-.65-.28-.6-.68-1.45-1.2-2.53s-1.12-2.46-2-3.95a10.45,10.45,0,0,0-3.9-4.18c-.94-.51-2-.85-3.12-1.34a6.75,6.75,0,0,1-1.59-.93,4,4,0,0,1-1.19-1.52c-.55-1.2-.57-2.57-1-3.82a3.34,3.34,0,0,0-1.12-1.59,6.28,6.28,0,0,0-1.87-.87,11.79,11.79,0,0,1-2.06-.79,3.75,3.75,0,0,1-1.6-1.65,17.41,17.41,0,0,1-1-4.51,5.51,5.51,0,0,0-.78-2.14,2.86,2.86,0,0,0-1.84-1.21c-1.53-.32-3.18.21-4.89-.06a4.14,4.14,0,0,1-2.24-1.18,11.12,11.12,0,0,1-1.45-2,21.4,21.4,0,0,0-1.27-2,4.55,4.55,0,0,0-1.72-1.46c-1.38-.64-3-.29-4.4,0a10.21,10.21,0,0,1-4.42.38,11.81,11.81,0,0,1-3.84-1.75,20.17,20.17,0,0,0-3.43-1.9,12,12,0,0,0-6.91-.22,12.8,12.8,0,0,0-5.12,2.64,14,14,0,0,0-2.82,3.34,16.22,16.22,0,0,0-1.21,2.5c-.11.29-.2.51-.27.68a1.21,1.21,0,0,1-.1.22.7.7,0,0,1,.06-.23l.24-.69a15.18,15.18,0,0,1,1.16-2.55A14.34,14.34,0,0,1,437,55.66a13,13,0,0,1,5.19-2.72,12.23,12.23,0,0,1,7.07.18A20.27,20.27,0,0,1,452.73,55a11.68,11.68,0,0,0,3.75,1.69,10,10,0,0,0,4.28-.39,14.93,14.93,0,0,1,2.27-.4,4.42,4.42,0,0,1,4.19,1.94c.49.65.89,1.35,1.31,2a10,10,0,0,0,1.4,1.94,3.73,3.73,0,0,0,2,1.08c1.59.27,3.24-.27,4.9.06a3.23,3.23,0,0,1,2.06,1.36,6.06,6.06,0,0,1,.83,2.27,17.07,17.07,0,0,0,1,4.43,3.36,3.36,0,0,0,1.45,1.51,12,12,0,0,0,2,.77,6.51,6.51,0,0,1,2,.92A3.59,3.59,0,0,1,487.35,76c.45,1.32.47,2.68,1,3.81A4.75,4.75,0,0,0,491,82.13c1.07.49,2.16.83,3.13,1.37a10.48,10.48,0,0,1,4,4.3c.84,1.52,1.41,2.89,1.92,4l1.14,2.56.29.66A.77.77,0,0,1,501.47,95.25Z" style="fill:#455a64"></path><path d="M489.08,83.06a1.15,1.15,0,0,1,.21,0,1.27,1.27,0,0,1,.62.13,2.49,2.49,0,0,1,1.16,2.07,6.19,6.19,0,0,1-.25,1.74,7.56,7.56,0,0,0-.3,2,4.51,4.51,0,0,0,.82,2.15c.45.71,1,1.39,1.5,2.23a3.4,3.4,0,0,1,.29,2.93c-.37,1-1.09,1.82-1.45,2.83a4.34,4.34,0,0,0,.32,3.2c.45,1.07,1.1,2.1,1.55,3.28a5.43,5.43,0,0,1,.37,1.89,4.65,4.65,0,0,1-.44,1.93,22.27,22.27,0,0,1-2.21,3.32,5.34,5.34,0,0,0-1.23,3.69,17.55,17.55,0,0,0,1.41,3.93,6,6,0,0,1,.43,2.14,4.84,4.84,0,0,1-.54,2.09,17.76,17.76,0,0,1-2.52,3.3,9.54,9.54,0,0,0-2,3.29,28.61,28.61,0,0,1-1.21,3.63,4.22,4.22,0,0,1-1.18,1.47,5.47,5.47,0,0,1-1.65.8,14.49,14.49,0,0,0-1.61.57,6,6,0,0,0-1.35.92,11.83,11.83,0,0,0-1.9,2.49c-.54.87-1,1.72-1.59,2.48a8,8,0,0,1-4.06,3,8.41,8.41,0,0,1-3.8.36,7.68,7.68,0,0,1-2.32-.67,5.46,5.46,0,0,1-.73-.42,9.21,9.21,0,0,0,3.07,1,8.61,8.61,0,0,0,3.72-.42,7.77,7.77,0,0,0,3.92-2.94c.54-.76,1-1.61,1.55-2.48a12.58,12.58,0,0,1,1.94-2.57,6.37,6.37,0,0,1,1.42-1,14.16,14.16,0,0,1,1.65-.6,5.43,5.43,0,0,0,1.55-.75,4,4,0,0,0,1.08-1.37,29,29,0,0,0,1.18-3.59,9.82,9.82,0,0,1,2.09-3.41,17.9,17.9,0,0,0,2.46-3.23,4.38,4.38,0,0,0,.51-1.94,6,6,0,0,0-.41-2,17,17,0,0,1-1.43-4,4.43,4.43,0,0,1,.28-2.11,8.68,8.68,0,0,1,1-1.82,22.4,22.4,0,0,0,2.19-3.26,4.35,4.35,0,0,0,.42-1.79,4.85,4.85,0,0,0-.35-1.77c-.42-1.15-1.06-2.18-1.53-3.27A4.72,4.72,0,0,1,491.4,99c.4-1.07,1.12-1.9,1.47-2.83a3,3,0,0,0-.26-2.71c-.43-.81-1-1.5-1.46-2.22a4.77,4.77,0,0,1-.83-2.27,7.16,7.16,0,0,1,.34-2.06,5.81,5.81,0,0,0,.27-1.7,2.42,2.42,0,0,0-1.05-2A1.56,1.56,0,0,0,489.08,83.06Z" style="fill:#455a64"></path><path d="M444.61,120.79a1.59,1.59,0,0,1,2-.86l7.3,2.67.81.3a17.59,17.59,0,0,1-1.62,4.27A4.55,4.55,0,0,1,450,129.4a5.15,5.15,0,0,1-3.08-.76c-1.48-.93-2.9-2-3.22-3.68C443.42,123.74,444.14,121.94,444.61,120.79Z" style="fill:#6f4439"></path><path d="M405,120.68a6.13,6.13,0,0,0-1.74,1,7.88,7.88,0,0,0-2.83,4.65,8.42,8.42,0,0,0,.1,3.82,9.36,9.36,0,0,0,2.13,3.84,9.6,9.6,0,0,0,4.05,2.66,8.81,8.81,0,0,0,5.19.11,9.53,9.53,0,0,0,4.44-2.71,8.58,8.58,0,0,0,2.12-4.36,9,9,0,0,0-2.3-7.66,8.75,8.75,0,0,0-4.94-2.31,4.83,4.83,0,0,0-1.5.06,1.52,1.52,0,0,0-.5.16,6.13,6.13,0,0,1,2,0,8.48,8.48,0,0,1,2.22.65,8.12,8.12,0,0,1,2.52,1.7,8.77,8.77,0,0,1,2.11,7.37,8.13,8.13,0,0,1-2,4.13,9.15,9.15,0,0,1-4.24,2.58,8.43,8.43,0,0,1-4.93-.1,9.28,9.28,0,0,1-3.89-2.52,9.15,9.15,0,0,1-2.08-3.66,8.18,8.18,0,0,1-.14-3.66,7.92,7.92,0,0,1,2.63-4.58A19.52,19.52,0,0,1,405,120.68Z" style="fill:#e0e0e0"></path><path d="M441.67,105.67a2.52,2.52,0,0,1-2.32,2.66,2.43,2.43,0,0,1-2.71-2.17,2.53,2.53,0,0,1,2.33-2.65A2.41,2.41,0,0,1,441.67,105.67Z" style="fill:#263238"></path><path d="M465.17,105.67a2.54,2.54,0,0,1-2.33,2.66,2.41,2.41,0,0,1-2.7-2.17,2.51,2.51,0,0,1,2.32-2.65A2.42,2.42,0,0,1,465.17,105.67Z" style="fill:#263238"></path><path d="M466.87,95.74c-.24.39-2.17-.93-4.65-.65s-4.12,1.92-4.44,1.59c-.15-.14.07-.8.78-1.56a5.72,5.72,0,0,1,3.49-1.71,5.61,5.61,0,0,1,3.76,1C466.66,95,467,95.57,466.87,95.74Z" style="fill:#263238"></path><path d="M443.16,97.79c-.34.39-2.47-1.27-5.45-1.24s-5.16,1.64-5.48,1.25c-.17-.17.17-.87,1.12-1.62a7.26,7.26,0,0,1,4.39-1.49,7.07,7.07,0,0,1,4.34,1.47C443,96.91,443.33,97.61,443.16,97.79Z" style="fill:#263238"></path><path d="M451.61,128.5s-.2.31-.79.59a4.56,4.56,0,0,1-2.71.22,7.1,7.1,0,0,1-3.57-1.89,4.44,4.44,0,0,1-1.22-2.16,5.86,5.86,0,0,1,.08-2.63,10.87,10.87,0,0,1,.92-2.39,1.77,1.77,0,0,1,1.06-1,2.17,2.17,0,0,1,1.31.22l3.62,1.46a16.3,16.3,0,0,1,3.27,1.53,15.62,15.62,0,0,1-3.46-1l-3.68-1.3c-.75-.31-1.09-.27-1.44.45a10.94,10.94,0,0,0-.84,2.22,4.15,4.15,0,0,0,.9,4.09,6.92,6.92,0,0,0,3.17,1.86,4.82,4.82,0,0,0,2.48,0C451.28,128.63,451.57,128.43,451.61,128.5Z" style="fill:#263238"></path><path d="M500.26,47.18a15,15,0,0,0-3.18-1.84,11.15,11.15,0,0,0-4.19-.74,10.35,10.35,0,0,0-5.33,1.54l-.25.15-.15-.26a9.61,9.61,0,0,0-5.84-4.28A9.75,9.75,0,0,0,473.13,43l-.3.23-.22-.31a15.73,15.73,0,0,0-10-6,15,15,0,0,0-9.07,1.37,15.66,15.66,0,0,0-6.31,5.59l-.1.16H447a23.48,23.48,0,0,0-9.39,2.33,24.64,24.64,0,0,0-6.26,4.28,32.63,32.63,0,0,0-4.28,5.16s.05-.15.19-.42.34-.66.65-1.15a22.67,22.67,0,0,1,3.15-3.9,24,24,0,0,1,6.29-4.5A23.68,23.68,0,0,1,447,43.35l-.29.17a16.17,16.17,0,0,1,6.57-5.91,15.69,15.69,0,0,1,9.54-1.46,16.43,16.43,0,0,1,10.44,6.37l-.53-.09a10.4,10.4,0,0,1,8.81-1.34,10.14,10.14,0,0,1,6.16,4.66l-.4-.11a10.67,10.67,0,0,1,5.63-1.5,11.18,11.18,0,0,1,4.31.9,10.11,10.11,0,0,1,2.38,1.45A4.36,4.36,0,0,1,500.26,47.18Z" style="fill:#263238"></path><path d="M421.35,43.12a6.79,6.79,0,0,1-2.91.7,10.47,10.47,0,0,1-7.66-2.74,9.7,9.7,0,0,1-2.84-5,10.82,10.82,0,0,1,.65-6.65,9.86,9.86,0,0,1,5.34-5.12,10.59,10.59,0,0,1,8-.06l-.46.11a7.52,7.52,0,0,1,4.38-2.5,7.78,7.78,0,0,1,4.25.36,6.93,6.93,0,0,1,3.22,2.62,7.73,7.73,0,0,1,.67,7.56l-.53-.47a6.36,6.36,0,0,1,6-.12A6.54,6.54,0,0,1,443,35.94a8.45,8.45,0,0,1-2.32,8.37A10.54,10.54,0,0,1,435.57,47a10.08,10.08,0,0,1-1.54.2,1.66,1.66,0,0,1-.53,0c0-.06.73-.07,2-.42A10.68,10.68,0,0,0,440.39,44a8,8,0,0,0,2-7.87,5.92,5.92,0,0,0-3.24-3.72,5.7,5.7,0,0,0-5.32.13l-1.06.64.54-1.12a7,7,0,0,0-.65-6.81,6.24,6.24,0,0,0-2.87-2.32A7,7,0,0,0,426,22.6a6.76,6.76,0,0,0-3.93,2.23l-.18.22-.27-.11a9.87,9.87,0,0,0-7.42,0,9.18,9.18,0,0,0-5,4.71,10.22,10.22,0,0,0-.67,6.23,9.28,9.28,0,0,0,2.59,4.78,10.4,10.4,0,0,0,7.29,2.83A15.53,15.53,0,0,0,421.35,43.12Z" style="fill:#263238"></path><path d="M366,73.39s-.1-.14-.23-.44a9.69,9.69,0,0,1-.45-1.36,12.45,12.45,0,0,1,3.95-12.39,13,13,0,0,1,9.82-3l-.39.21a15.47,15.47,0,0,1,7.84-7.4,15,15,0,0,1,8.17-.94,15.36,15.36,0,0,1,6.91,3l-.39,0a16.83,16.83,0,0,1,8.28-2A17.22,17.22,0,0,1,416,50.39a16,16,0,0,1,3.72,2.14,6.71,6.71,0,0,1,1.11,1,22.42,22.42,0,0,0-5-2.79,17.77,17.77,0,0,0-6.34-1.12,16.6,16.6,0,0,0-7.94,2l-.2.12-.19-.15a14.72,14.72,0,0,0-6.6-2.79,14.24,14.24,0,0,0-7.74.91,14.81,14.81,0,0,0-7.46,7l-.12.24L379,57a12.41,12.41,0,0,0-9.31,2.73,12,12,0,0,0-4,6.65,12.88,12.88,0,0,0-.09,5.2C365.79,72.74,366,73.37,366,73.39Z" style="fill:#263238"></path></g><g id="freepik--character-1--inject-3"><path d="M355.4,171.06a10.46,10.46,0,0,0-4.63,1.12,26.36,26.36,0,0,1-10.43,2.15c-15.28,0-29.95-9.06-29.95-27.79,0-11.17,11.44-22.51,22.7-24.38,5.68-.94,14,1.84,18.47,4a12.94,12.94,0,0,0,5.64,1.32H360l.18-61.6c0-4.2-3.74-7.6-7.14-7.6H170.35c-5.81,0-9.55,3.4-9.55,7.6v63.56l7.35-.4a14.29,14.29,0,0,0,5-.89c3.18-1.17,6.5-3.21,10.15-3.21,15.65,0,26.57,8.85,25.94,23.22-.55,12.67-9.93,22.57-23.83,23.45A28.25,28.25,0,0,1,172.16,169a15.86,15.86,0,0,0-6-1.35l-5.36.12V230c0,5.15,4.59,9.33,10.25,9.33H349.89c5.66,0,10.25-4.18,10.25-9.33V171.05Z" style="fill:#e0e0e0"></path><path d="M236.52,161.15l-.91-74.73c-.83-18.59,9.29-34.56,27.89-34.88l1.72.07a33.26,33.26,0,0,1,31.87,31.92c.63,16.11,1.12,33.92.66,42.53-1,17.83-18.91,19.87-18.91,19.87s-.11,10.85-.1,16.09l-5.67,11.31-4.82-2.65Z" style="fill:#ffbf9d"></path><path d="M278.84,145.07a43.09,43.09,0,0,1-22.94-7.82s5,13.64,22.89,12.77Z" style="fill:#ff9a6c"></path><path d="M289.33,98.07a2.55,2.55,0,0,1-2.57,2.46,2.44,2.44,0,0,1-2.53-2.4,2.55,2.55,0,0,1,2.56-2.47A2.45,2.45,0,0,1,289.33,98.07Z" style="fill:#263238"></path><path d="M293,90.4c-.33.32-2.2-1.19-4.94-1.3s-4.81,1.19-5.09.84c-.14-.16.2-.74,1.11-1.34a6.94,6.94,0,0,1,4.09-1.08A6.77,6.77,0,0,1,292.05,89C292.87,89.64,293.13,90.26,293,90.4Z" style="fill:#263238"></path><path d="M265.09,97.57a2.56,2.56,0,0,1-2.57,2.47,2.44,2.44,0,0,1-2.53-2.4,2.55,2.55,0,0,1,2.56-2.47A2.44,2.44,0,0,1,265.09,97.57Z" style="fill:#263238"></path><path d="M266.08,89.92c-.33.32-2.21-1.18-4.95-1.29s-4.8,1.18-5.09.83c-.14-.15.21-.74,1.11-1.34A7.06,7.06,0,0,1,261.24,87a6.71,6.71,0,0,1,3.92,1.45C266,89.17,266.24,89.78,266.08,89.92Z" style="fill:#263238"></path><path d="M275,111.39c0-.16,1.71-.38,4.48-.62.7,0,1.37-.15,1.51-.63a3.56,3.56,0,0,0-.38-2.09c-.59-1.72-1.2-3.52-1.85-5.41-2.56-7.71-4.38-14-4.07-14.14s2.64,6.07,5.2,13.77c.61,1.9,1.2,3.71,1.76,5.45a4.06,4.06,0,0,1,.25,2.76,1.76,1.76,0,0,1-1.19,1,4.91,4.91,0,0,1-1.2.12C276.77,111.61,275,111.55,275,111.39Z" style="fill:#263238"></path><path d="M267.32,81.39c-.4.68-3-.16-6.27-.37s-6,.19-6.25-.54c-.13-.35.44-1,1.61-1.48a10.95,10.95,0,0,1,9.53.69C267,80.38,267.5,81.06,267.32,81.39Z" style="fill:#263238"></path><path d="M293.43,82.35c-.59.6-2.81-.1-5.49-.2s-5,.28-5.48-.38c-.22-.32.16-.94,1.17-1.5a8.6,8.6,0,0,1,4.49-.9,8.46,8.46,0,0,1,4.34,1.36C293.39,81.4,293.69,82.05,293.43,82.35Z" style="fill:#263238"></path><path d="M236.52,98.83c-.3-.14-12.1-4.13-12.22,8.08s12.17,9.81,12.19,9.46S236.52,98.83,236.52,98.83Z" style="fill:#ffbf9d"></path><path d="M232.81,111.7c-.05,0-.22.15-.58.31a2.08,2.08,0,0,1-1.59,0c-1.28-.48-2.35-2.54-2.39-4.74a6.92,6.92,0,0,1,.63-3,2.45,2.45,0,0,1,1.61-1.62,1.09,1.09,0,0,1,1.25.59c.16.35.08.59.15.61s.26-.2.17-.71a1.37,1.37,0,0,0-.48-.77,1.63,1.63,0,0,0-1.17-.32,3,3,0,0,0-2.24,1.87,7.34,7.34,0,0,0-.77,3.4c.06,2.46,1.29,4.78,3,5.3a2.3,2.3,0,0,0,2-.3C232.78,112,232.85,111.73,232.81,111.7Z" style="fill:#ff9a6c"></path><path d="M266.43,113.09c.42,0,.44,2.78,2.84,4.75s5.4,1.66,5.42,2c0,.18-.66.55-1.92.59a7,7,0,0,1-4.52-1.55,6.07,6.07,0,0,1-2.21-4C265.93,113.77,266.24,113.07,266.43,113.09Z" style="fill:#263238"></path><path d="M321.73,66.62a2.93,2.93,0,0,0-1.34-1.71c-1.39-.84-3-.75-4.56-.79a25.79,25.79,0,0,1-11.14-2.93A12.81,12.81,0,0,0,308,58.92c2-2,3.17-5,2.29-7.6a1.7,1.7,0,0,0-.94-1.18c-.79-.25-1.5.52-2.06,1.13-1.84,2-3.53,2.87-6.24,2.56a10.8,10.8,0,0,1-4.62-1.42l-.15-.17c-.63-.67-1.24-1.3-1.85-1.91h0c-4.54-4.61-8.45-7.81-12.5-9.5-5.94-2.46-15.89-3.55-22.13-2S247.93,45.38,247,51.74c-3.45-3-8.68-3-12.94-1.37l-.11,0c-4.75,1.63-7.49,6.59-8.94,11.4-.08.26-.15.53-.22.79a18.74,18.74,0,0,1-6.44,6.14c-.46.26-1,.58-1,1.11s.37,1,.79,1.27a9.51,9.51,0,0,0,3.81,1.63,21.42,21.42,0,0,1-1.61,3.3c-.54.9-1.19,2-.73,2.92a2,2,0,0,0,2.08.93,5.67,5.67,0,0,0,2.21-1c-.54,1.26-1.08,2.52-1.63,3.77a11.22,11.22,0,0,0,5.15-.28c.95,4.52,1.61,12.88,2.74,16,3.24.09,4-.25,5.66.31,2.11.72,1.26,4.46,4,3.42,1.41-.52,3.62-5.81,4.1-7.23a69.68,69.68,0,0,0,3.36-29.47,22.29,22.29,0,0,1,7-4.92l-.21.19c5-1.68,10.68-3.32,15.39-.92,3.65,1.86,5.77,5.7,8.48,8.77,5.14,5.83,11,9,18.75,9.39.64,5.4.75,14.22,1,19.25l4.41-10v0c.35-.58.64-1.18.93-1.77l.1-.18v0c.45-.95.88-1.91,1.44-2.85l0,0c2.7,2.43,6.76-1.2,4.64-4.15a7.11,7.11,0,0,0-1.5-1.55,4.94,4.94,0,0,0,4.72,1.28,3.89,3.89,0,0,0,2.8-3.82,3.31,3.31,0,0,0-1.94-2.68,11.17,11.17,0,0,0,6.38-1.34C320.89,69.37,322.14,68.2,321.73,66.62Z" style="fill:#263238"></path><path d="M252.59,53.85a17.63,17.63,0,0,0-1.81,1.62,12.91,12.91,0,0,0-2.81,5.9,22.53,22.53,0,0,0-.5,4.54c0,1.64.08,3.41.19,5.27a45.46,45.46,0,0,1,.06,5.86,20.73,20.73,0,0,1-.43,3.08,6.49,6.49,0,0,1-1.3,3,2.72,2.72,0,0,1-2.53.82,4,4,0,0,1-2.25-1.31,9.26,9.26,0,0,1-1.68-4.56l.38,0a14.79,14.79,0,0,1-2.22,3.71,5.32,5.32,0,0,1-3.49,1.86,3.38,3.38,0,0,1-1.84-.35,3,3,0,0,1-1.24-1.24,3,3,0,0,1-.36-1.59,2.18,2.18,0,0,1,.59-1.38l.18.17a11.32,11.32,0,0,1-3.87,2.83,8.94,8.94,0,0,1-1.19.45,1.89,1.89,0,0,1-.43.1s.14-.06.41-.17.66-.26,1.16-.5a11.86,11.86,0,0,0,3.73-2.88l.19.17a2.3,2.3,0,0,0-.15,2.65,2.72,2.72,0,0,0,1.12,1.11,3.22,3.22,0,0,0,1.67.29,5.06,5.06,0,0,0,3.25-1.76,14.9,14.9,0,0,0,2.13-3.64l.26-.57.12.62a8.82,8.82,0,0,0,1.59,4.36,3.65,3.65,0,0,0,2,1.17,2.26,2.26,0,0,0,2.15-.7,6.1,6.1,0,0,0,1.2-2.79,21.15,21.15,0,0,0,.44-3,48.66,48.66,0,0,0,0-5.81c-.09-1.86-.19-3.63-.15-5.3a22.15,22.15,0,0,1,.57-4.59,12.66,12.66,0,0,1,3-6A7.43,7.43,0,0,1,252.59,53.85Z" style="fill:#455a64"></path><path d="M307.67,71.87l-.14.12-.45.32a6.47,6.47,0,0,1-.76.47,8,8,0,0,1-1.1.56,15.77,15.77,0,0,1-7.66,1.29,20.22,20.22,0,0,1-10.74-4.1,35.09,35.09,0,0,1-9.14-10.79c-1.28-2.17-2.31-4.4-3.46-6.47a23.3,23.3,0,0,0-3.93-5.48,12.14,12.14,0,0,0-5.11-3.18,8.53,8.53,0,0,0-2.71-.35,9.9,9.9,0,0,0-2.49.45,10.34,10.34,0,0,0-3.75,2.2,10.15,10.15,0,0,0-2.05,2.59,12.21,12.21,0,0,0-1,2.67s0-.06,0-.18.06-.33.09-.55a9.1,9.1,0,0,1,.71-2,10,10,0,0,1,2-2.69,10.46,10.46,0,0,1,3.81-2.31,10.1,10.1,0,0,1,2.57-.49,9.28,9.28,0,0,1,2.83.33,12.53,12.53,0,0,1,5.28,3.25,23.72,23.72,0,0,1,4,5.56c1.16,2.07,2.19,4.3,3.46,6.46a35.09,35.09,0,0,0,9,10.68,20.11,20.11,0,0,0,10.53,4.12,16.14,16.14,0,0,0,7.58-1.14A24.82,24.82,0,0,0,307.67,71.87Z" style="fill:#455a64"></path><path d="M309.39,64a2.86,2.86,0,0,1-.65.44,12.55,12.55,0,0,1-1.91.94,17.55,17.55,0,0,1-3,1,20.61,20.61,0,0,1-3.85.46,21.22,21.22,0,0,1-3.86-.3,19.28,19.28,0,0,1-3.06-.83,13.24,13.24,0,0,1-1.94-.86,3.38,3.38,0,0,1-.67-.41c0-.08,1,.44,2.71,1a21.3,21.3,0,0,0,3,.73,23.71,23.71,0,0,0,3.79.27,24,24,0,0,0,3.78-.43,21.11,21.11,0,0,0,3-.85C308.39,64.52,309.35,64,309.39,64Z" style="fill:#455a64"></path><path d="M351.62,215.15s-30.78-46.75-39.87-48.79L303.64,164h0l-24.54-6.65s.18,9.45-13.49,9.75c-15.75.35-29-13.5-29-13.5s-32.74,10.2-39.62,15.75,4.45,69.71,4.45,69.71H321.29l-.09-.71Z" style="fill:#04034E"></path><path d="M196.7,169.34a35.78,35.78,0,0,0-13.23,21.45c-2.88,14.4-8.87,48.28-8.87,48.28l50.07,0s-2.29-20.93-2.29-22.5-8.67-35.88-9.19-36.67S196.7,169.34,196.7,169.34Z" style="fill:#04034E"></path><path d="M204.35,170.15c-.13.22,3.58,2.1,7.17,5.63s5.6,7.16,5.82,7-1.5-4-5.25-7.62S204.4,170,204.35,170.15Z" style="fill:#263238"></path><path d="M218.45,239.13a12.62,12.62,0,0,1,0-1.74c0-1.21,0-2.8,0-4.73,0-4,0-9.52,0-15.61s-.24-11.62-.37-15.61c-.07-1.93-.12-3.53-.15-4.73a12.92,12.92,0,0,1,0-1.74,9.86,9.86,0,0,1,.2,1.73c.09,1.11.2,2.73.31,4.72.23,4,.45,9.52.53,15.62s0,11.62-.11,15.62c-.06,2-.13,3.62-.2,4.73A10.28,10.28,0,0,1,218.45,239.13Z" style="fill:#263238"></path><polygon points="343.87 221.07 349.89 239.28 321.29 239.1 321.2 238.39 343.87 221.07" style="fill:#ffbf9d"></polygon><path d="M314.4,190.62c.14,0,1.7,10.72,3.48,24s3.1,24,3,24.06-1.7-10.72-3.48-24S314.26,190.64,314.4,190.62Z" style="fill:#263238"></path><path d="M308.59,58.28s.69,0,2.05,0l6,0,23.24,0h8c1.4,0,2.84,0,4.32,0a9,9,0,0,1,4.33,1.31,8,8,0,0,1,3.12,3.56,6.92,6.92,0,0,1,.57,2.39c0,.84,0,1.66,0,2.5,0,3.35,0,6.82,0,10.43,0,14.42-.07,30.87-.11,49.1v.19H360c-1.14,0-2.27,0-3.44,0a13.18,13.18,0,0,1-3.44-.67c-1.13-.36-2.16-1-3.24-1.39s-2.18-.89-3.31-1.27a43.84,43.84,0,0,0-7-1.8,23.36,23.36,0,0,0-3.64-.34,13.68,13.68,0,0,0-3.66.37A28.51,28.51,0,0,0,319,129.7a28.82,28.82,0,0,0-5,6,22.7,22.7,0,0,0-3,7.35,23.49,23.49,0,0,0,0,8.11c.11.67.19,1.36.33,2l.54,2a12.28,12.28,0,0,0,.68,2,16.29,16.29,0,0,0,.82,1.92,25.31,25.31,0,0,0,11.94,11.66,33.58,33.58,0,0,0,4,1.65,38.17,38.17,0,0,0,4.25,1,35.63,35.63,0,0,0,8.82.57,26.26,26.26,0,0,0,8.65-2.2,10.32,10.32,0,0,1,4.52-1l4.6,0h.24v.24q0,19.44,0,40v18.14a12.65,12.65,0,0,1-.2,2.66,9.28,9.28,0,0,1-2.61,4.65,10.73,10.73,0,0,1-4.65,2.66,11.12,11.12,0,0,1-2.68.39c-.91,0-1.78,0-2.68,0H253.41l-82.85,0a10.65,10.65,0,0,1-8.6-4.78,9,9,0,0,1-1.41-4.83V205.47q0-19.31,0-37.74v-.24h.24l4.35-.09a14.17,14.17,0,0,1,4.35.41,27.72,27.72,0,0,1,4.07,1.47,34.54,34.54,0,0,0,4,1.33,24.11,24.11,0,0,0,8.31.71,26.75,26.75,0,0,0,8-1.84,23.58,23.58,0,0,0,12-10.4,25.11,25.11,0,0,0,2.84-15.21,20.7,20.7,0,0,0-2.31-7.27,20.22,20.22,0,0,0-4.84-5.72,22.26,22.26,0,0,0-6.42-3.65,29.58,29.58,0,0,0-3.5-1.11c-.59-.15-1.19-.24-1.79-.36a15.52,15.52,0,0,0-1.79-.29l-1.8-.2c-.6,0-1.2,0-1.8-.08a12.24,12.24,0,0,0-3.53.2,38.27,38.27,0,0,0-6.6,2.46,17,17,0,0,1-3.35,1.09,19.41,19.41,0,0,1-3.47.33l-6.79.36h-.2v-.2c0-20.57,0-39.18,0-55.52q0-3.08,0-6a26.24,26.24,0,0,1,.07-2.94,7.26,7.26,0,0,1,1-2.76A8.4,8.4,0,0,1,166,58.7a14.63,14.63,0,0,1,5.35-.55l19.15,0,26.51,0,6.9,0,2.35,0-2.35,0-6.9,0-26.51,0-19.15,0a14.42,14.42,0,0,0-5.26.54,8.1,8.1,0,0,0-4.19,3.39A7,7,0,0,0,161,65a28,28,0,0,0-.06,2.91v6c0,16.34,0,35,0,55.52l-.2-.19,6.8-.37a19.2,19.2,0,0,0,3.4-.32,16.77,16.77,0,0,0,3.28-1.07,37.2,37.2,0,0,1,6.67-2.49,12.57,12.57,0,0,1,3.62-.22c.61,0,1.22,0,1.82.08l1.82.2a16.39,16.39,0,0,1,1.82.29c.6.12,1.21.21,1.81.37a28.61,28.61,0,0,1,3.55,1.12,22.86,22.86,0,0,1,6.54,3.71,20.56,20.56,0,0,1,5,5.85,21.24,21.24,0,0,1,2.37,7.41,25.57,25.57,0,0,1-2.89,15.49,24,24,0,0,1-12.23,10.6,27.1,27.1,0,0,1-8.17,1.89,24.53,24.53,0,0,1-8.47-.73,34.74,34.74,0,0,1-4.08-1.34,27.06,27.06,0,0,0-4-1.44,14,14,0,0,0-4.23-.41l-4.35.1.23-.24q0,18.42,0,37.74V225c.14,3.25-.56,6.75,1.34,9.5a10.14,10.14,0,0,0,8.19,4.54h177a19.21,19.21,0,0,0,5.22-.39,9.53,9.53,0,0,0,6.91-6.93,11.93,11.93,0,0,0,.19-2.55V211q0-20.51,0-40l.24.24h-4.6a9.94,9.94,0,0,0-4.34.95,26.78,26.78,0,0,1-8.8,2.23,36,36,0,0,1-8.93-.58,37.13,37.13,0,0,1-4.31-1.06,34.56,34.56,0,0,1-4.08-1.67,25.73,25.73,0,0,1-12.14-11.88,16.79,16.79,0,0,1-.83-1.95,14.65,14.65,0,0,1-.69-2l-.54-2c-.14-.68-.23-1.38-.34-2.06a24.06,24.06,0,0,1,0-8.25,23.16,23.16,0,0,1,3.08-7.49,29.38,29.38,0,0,1,5.08-6.11,29,29,0,0,1,13.44-7.24,13.9,13.9,0,0,1,3.74-.37,23.9,23.9,0,0,1,3.7.35,43,43,0,0,1,7,1.82c1.14.39,2.25.82,3.34,1.28s2.12,1,3.21,1.39a12.36,12.36,0,0,0,3.34.65c1.13,0,2.29,0,3.42,0l-.18.18c.06-18.23.13-34.68.18-49.1Q360,73,360,68c0-.84,0-1.68,0-2.48a6.52,6.52,0,0,0-.55-2.31,7.71,7.71,0,0,0-3-3.45,8.78,8.78,0,0,0-4.22-1.29c-1.46,0-2.91,0-4.31,0h-8l-23.24-.05-6,0Z" style="fill:#263238"></path></g><g id="freepik--character-2--inject-3"><path d="M333.81,307.18a27.57,27.57,0,0,1,13.05,2.66,15.49,15.49,0,0,0,5.92,1.34l5.29-.11V248.84c0-5.15-4.53-9.33-10.11-9.33H171.47c-5.58,0-10.11,4.18-10.11,9.33V412.92c0,4.19,3.69,7.59,8.23,7.59H349.84c4.54,0,8.23-3.4,8.23-7.59v-59.3h-7.29a14.14,14.14,0,0,0-4.92.89,29.09,29.09,0,0,1-10.17,1.83c-15.45,0-27.9-11.84-27.28-26.21C309,317.46,320.09,308.07,333.81,307.18Z" style="fill:#e0e0e0"></path><path d="M333.81,307.18l-1.75.21a18.13,18.13,0,0,0-2.15.35,25.26,25.26,0,0,0-2.93.7A29.81,29.81,0,0,0,319.3,312a20.52,20.52,0,0,0-2.11,1.54c-.35.29-.72.56-1.06.88l-1,1-.52.51-.48.57-1,1.16a25.56,25.56,0,0,0-1.74,2.67,19.91,19.91,0,0,0-2.42,6.46,22,22,0,0,0-.19,7.62,23.14,23.14,0,0,0,2.58,7.92,25.92,25.92,0,0,0,5.67,7,28.37,28.37,0,0,0,18.51,6.87,29.22,29.22,0,0,0,10.82-2,14.39,14.39,0,0,1,2.84-.62,26.26,26.26,0,0,1,2.94-.1h6.12v.17c0,9.29,0,19.16,0,29.56q0,7.8,0,16,0,4.1,0,8.29v4.21a19.57,19.57,0,0,1-.06,2.15,7.76,7.76,0,0,1-.6,2.1,8.46,8.46,0,0,1-7,4.76c-2.95.07-5.87,0-8.85,0H285.28l-83.33,0h-22c-3.72,0-7.41,0-11.2,0a8.92,8.92,0,0,1-5.19-2.32,7.5,7.5,0,0,1-2.41-5.16q0-22.63,0-46v-66q0-16.12,0-31.82V250a11.09,11.09,0,0,1,.43-3.87,9.8,9.8,0,0,1,5-5.73,10.92,10.92,0,0,1,3.71-1.07c1.29-.11,2.53-.05,3.79-.07H225l53.48,0,47.62,0,21.35,0a10.65,10.65,0,0,1,8.91,4,9.1,9.1,0,0,1,1.82,4.51c.1,1.62,0,3.17.05,4.73,0,24.87-.06,44.71-.07,58.44v.08h-.09c-2.08,0-4,.1-5.85.08a15.51,15.51,0,0,1-4.93-1.16,36.13,36.13,0,0,0-7.34-2.44,24.37,24.37,0,0,0-4.6-.48c-.51,0-.9,0-1.16,0h-.38a14.8,14.8,0,0,1,1.54-.06,23,23,0,0,1,4.62.43,35.37,35.37,0,0,1,7.37,2.41,15.32,15.32,0,0,0,4.89,1.13c1.8,0,3.76-.07,5.84-.11l-.08.09c0-13.73,0-33.57-.07-58.44,0-1.54,0-3.14-.06-4.7a8.83,8.83,0,0,0-1.76-4.35,10.34,10.34,0,0,0-8.65-3.9l-21.35,0-47.62,0-53.48,0H174.06c-1.25,0-2.53,0-3.74.06a10.23,10.23,0,0,0-3.54,1,9.27,9.27,0,0,0-4.77,5.43,10.7,10.7,0,0,0-.4,3.72v19.41q0,15.69,0,31.82v66q0,23.3,0,46a7.1,7.1,0,0,0,2.25,4.81,8.46,8.46,0,0,0,4.89,2.18c3.69.07,7.45,0,11.15,0h22l83.33,0h56.48c3,0,5.94,0,8.82,0a8.08,8.08,0,0,0,6.67-4.51,7.55,7.55,0,0,0,.56-2,20.5,20.5,0,0,0,.06-2.09v-12.5q0-8.19,0-16c0-10.4,0-20.27,0-29.56l.17.17h-5.95a25.34,25.34,0,0,0-2.9.08,14.25,14.25,0,0,0-2.77.61,29.55,29.55,0,0,1-10.93,2,28.55,28.55,0,0,1-18.68-7,25.85,25.85,0,0,1-5.71-7.1,23.5,23.5,0,0,1-2.6-8,21.9,21.9,0,0,1,.22-7.69,23,23,0,0,1,1-3.45,21.67,21.67,0,0,1,1.48-3.06,24.81,24.81,0,0,1,1.76-2.68l1-1.17.49-.57.53-.51,1-1c.35-.31.72-.59,1.08-.88a19.69,19.69,0,0,1,2.13-1.54,29.12,29.12,0,0,1,7.72-3.5,27.93,27.93,0,0,1,2.94-.69,20.27,20.27,0,0,1,2.16-.32Z" style="fill:#263238"></path><path d="M231.17,296.33c-2.46-7.27-4.89-14.6-6.07-22.19s-1-15.52,1.55-22.75c.39-1.09,3.76-8.46,4.92-8.36.83.08-1.22,6.93-.79,7.64,4.08,6.82,5.26,15.06,4.72,23a103.87,103.87,0,0,1-4.33,22.68" style="fill:#263238"></path><path d="M232,336.06l-1.91-69c-.86-19.24,9.62-35.78,28.87-36.1l1.78.07a34.43,34.43,0,0,1,33,33.05c.66,16.68,1.16,35.11.69,44-1,18.45-19.58,20.56-19.58,20.56s-.17,19.18-.16,24.6l-13.11,13.93.75-4.22Z" style="fill:#ffbf9d"></path><path d="M274.81,328.65a44.67,44.67,0,0,1-23.75-8.1s5.21,14.12,23.7,13.22Z" style="fill:#ff9a6c"></path><path d="M287.58,279.47a2.64,2.64,0,0,1-2.65,2.56,2.53,2.53,0,0,1-2.62-2.49A2.64,2.64,0,0,1,285,277,2.52,2.52,0,0,1,287.58,279.47Z" style="fill:#263238"></path><path d="M289.44,272.05c-.34.33-2.28-1.23-5.12-1.34s-5,1.22-5.27.86c-.14-.16.22-.77,1.15-1.39a7.26,7.26,0,0,1,4.24-1.12,7,7,0,0,1,4.05,1.5C289.34,271.27,289.61,271.9,289.44,272.05Z" style="fill:#263238"></path><path d="M262.35,279.47A2.64,2.64,0,0,1,259.7,282a2.53,2.53,0,0,1-2.62-2.49,2.65,2.65,0,0,1,2.65-2.56A2.52,2.52,0,0,1,262.35,279.47Z" style="fill:#263238"></path><path d="M261.6,271.56c-.34.33-2.28-1.23-5.12-1.34s-5,1.22-5.27.86c-.14-.16.21-.77,1.15-1.39a7.26,7.26,0,0,1,4.24-1.12,7,7,0,0,1,4,1.5C261.49,270.77,261.76,271.41,261.6,271.56Z" style="fill:#263238"></path><path d="M270.88,293.78c0-.16,1.77-.39,4.64-.64.73-.05,1.42-.16,1.56-.65a3.76,3.76,0,0,0-.39-2.17l-1.92-5.6c-2.65-8-4.54-14.53-4.22-14.64s2.74,6.28,5.39,14.26c.63,2,1.24,3.84,1.82,5.64a4.22,4.22,0,0,1,.26,2.86,1.85,1.85,0,0,1-1.24,1,5.14,5.14,0,0,1-1.23.12C272.66,294,270.88,293.94,270.88,293.78Z" style="fill:#263238"></path><path d="M262.88,262.72c-.41.71-3.13-.17-6.48-.38s-6.17.19-6.48-.57c-.13-.36.46-1,1.67-1.53a11.37,11.37,0,0,1,9.87.72C262.57,261.67,263.07,262.38,262.88,262.72Z" style="fill:#263238"></path><path d="M289.91,263.71c-.6.63-2.9-.1-5.68-.21s-5.14.3-5.66-.39c-.23-.33.15-1,1.2-1.55a9,9,0,0,1,4.65-.93,8.85,8.85,0,0,1,4.49,1.41C289.88,262.73,290.18,263.4,289.91,263.71Z" style="fill:#263238"></path><path d="M231,280.78c-.31-.15-12.53-4.28-12.65,8.36S231,299.29,231,298.93,231,280.78,231,280.78Z" style="fill:#ffbf9d"></path><path d="M227.16,294.11c-.06-.05-.23.15-.6.31a2.14,2.14,0,0,1-1.65,0c-1.33-.5-2.43-2.63-2.47-4.91a7.42,7.42,0,0,1,.64-3.15,2.54,2.54,0,0,1,1.68-1.67,1.11,1.11,0,0,1,1.29.62c.17.35.08.6.15.62s.27-.21.18-.73a1.4,1.4,0,0,0-.49-.79,1.7,1.7,0,0,0-1.22-.34,3.12,3.12,0,0,0-2.32,1.94,7.42,7.42,0,0,0-.79,3.52c.06,2.54,1.34,4.94,3.16,5.48a2.35,2.35,0,0,0,2-.31C227.13,294.41,227.2,294.13,227.16,294.11Z" style="fill:#ff9a6c"></path><path d="M285.54,243.11c2-1.13-4.09-7.75-9.12-10-7.6-3.45-19.2-5.58-26.2-3.6-8.44,2.39-15.45,6.58-19.69,14.26s-5.84,16.62-5.59,25.38c.07,2.67.35,5.46,1.77,7.72,1.77,2.8,5.15,4.56,5,8.42a5.34,5.34,0,0,0,1.31,3.86c2.32,2.46,5.15.15,6.45-2.17,2.78-4.95,3.09-10.86,3.34-16.53.17-4,.34-8.15-.79-12-.62-2.11-1.61-4.1-2.11-6.24a7.57,7.57,0,0,1,.9-6.31,8,8,0,0,1,1-1,13.2,13.2,0,0,1,13.08-2.48c7.12,2.52,19.27,6.29,22.45,3.88,4.57-3.48,5.66-5.74,5.66-5.74Z" style="fill:#263238"></path><path d="M262,295.54c.44,0,.46,2.87,3,4.92s5.58,1.72,5.61,2.12c0,.18-.69.57-2,.61a7.2,7.2,0,0,1-4.68-1.61,6.26,6.26,0,0,1-2.28-4.13C261.44,296.24,261.76,295.52,262,295.54Z" style="fill:#263238"></path><g style="opacity:0.30000000000000004"><path d="M260.49,351.56c-1.56-2.62-3.34-4.53-4.9-7.14-.12-.2-.88-1-.79-1.23a7.67,7.67,0,0,0-1.05,1.27c-1.6,2.45-4.11,4.7-5.79,6.86L226.73,332a142,142,0,0,0,19.63,22.75,2.67,2.67,0,0,0,2,.79,3.19,3.19,0,0,0,1.9-1.36q1.6-2,3.23-3.91a1.38,1.38,0,0,1,2.36-.16l3.27,2.52c.46.35,1.16.69,1.54.26S260.74,352,260.49,351.56Z"></path></g><path d="M228.23,332.62s-29.68-7.65-46.69,11.6a36,36,0,0,0-8.66,26.35c.45,6.56,1.1,16,1.68,24.75,1,15.37,4.38,53.33,12.51,62.38s30,4.65,37.65,1.64,19.57-2.16,25.45-7.73,14.7-9,23.92-12.67,5.53-8.57,5.53-8.57L265.83,401.2l-50,10s-2.06-19.23.08-25,5.74-13.33,6.9-22.18S228.23,332.62,228.23,332.62Z" style="fill:#04034E"></path><path d="M216.46,410.92c0,.09-1.36.58-3.42,1.72a29.7,29.7,0,0,0-3.45,2.27,32.27,32.27,0,0,0-3.71,3.43,31.5,31.5,0,0,0-3,4,28.3,28.3,0,0,0-1.9,3.67c-.93,2.17-1.27,3.6-1.37,3.58a4.3,4.3,0,0,1,.18-1,11.35,11.35,0,0,1,.32-1.17c.15-.45.29-1,.52-1.52a25.29,25.29,0,0,1,1.84-3.78,26.68,26.68,0,0,1,6.86-7.6,25.47,25.47,0,0,1,3.56-2.21c.53-.29,1-.49,1.47-.68a9.14,9.14,0,0,1,1.13-.44A4.36,4.36,0,0,1,216.46,410.92Z" style="fill:#263238"></path><g style="opacity:0.30000000000000004"><path d="M214.75,410.86a26.69,26.69,0,0,0-20.81,19.63c-.33,1.39-.37,3.19.89,3.85a2.41,2.41,0,0,0,2.81-.79A8.24,8.24,0,0,0,199,430.7a34.32,34.32,0,0,1,17.51-20Z"></path></g><path d="M219.05,330h5.47l6.25-9.13,23.95,19.61,7.9,11.75,3.85-11.58,8.34-4.14,2.15,6.33,7,3.2-8.73,21.86-7,8.5s-10.86,8-25.26-5.19L228.51,358Z" style="fill:#fff"></path><path d="M219.05,330s28.66,43.33,40.26,39.23,23.11-24.35,23.11-24.35,25.21,8,33.06,16.51,21,58.56,21,58.56l-120.59-8.78s-18-26.93-18-29,5.29-50,5.29-50Z" style="fill:#04034E"></path><path d="M266.55,402.31s16.24-6,23.44-5.31,35.33,23,35.33,23l-36.6-.21-3.18-2.9-8.15,8.79Z" style="fill:#ffbf9d"></path><path d="M272.72,439.17a10.91,10.91,0,0,1-1.64,1l-.11.06-.05-.12c-1.09-2.68-3.31-8.42-5.8-15.09-1.75-4.68-3.31-8.92-4.41-12-.51-1.48-.94-2.7-1.28-3.66A7.64,7.64,0,0,1,259,408a8.18,8.18,0,0,1,.59,1.3l1.44,3.6c1.19,3.05,2.8,7.27,4.55,11.95,2.49,6.66,4.59,12.45,5.52,15.19L271,440A12.11,12.11,0,0,1,272.72,439.17Z" style="fill:#263238"></path><path d="M186.83,359.21a5.78,5.78,0,0,1,1.14.54c.71.38,1.72,1,2.93,1.75a69.4,69.4,0,0,1,8.91,6.9c1.64,1.48,3.14,3,4.47,4.32a30.15,30.15,0,0,1,3.34,3.83,7.55,7.55,0,0,1,1.35,3.16,4.3,4.3,0,0,1,.06.94c0,.22,0,.33-.05.33s0-.45-.21-1.23a8.1,8.1,0,0,0-1.45-3,34.51,34.51,0,0,0-3.38-3.71c-1.35-1.34-2.85-2.79-4.48-4.26a84.82,84.82,0,0,0-8.76-7c-1.18-.82-2.16-1.44-2.84-1.88A5.3,5.3,0,0,1,186.83,359.21Z" style="fill:#263238"></path><path d="M280.37,432a4.59,4.59,0,0,1-.31-.57l-.83-1.66c-.73-1.5-1.76-3.64-3.06-6.31L265.62,401.3l.26.14-21.27,4.26-28.7,5.7-.21,0,0-.22c-1.58-7.77-2.89-14.24-3.82-18.81-.44-2.24-.79-4-1-5.26-.11-.59-.2-1-.26-1.39a4.44,4.44,0,0,1-.07-.48,1.62,1.62,0,0,1,.14.46c.08.35.18.8.32,1.38l1.15,5.24c1,4.56,2.35,11,4,18.77l-.26-.17,28.68-5.77L265.79,401l.18,0,.08.17c4.23,9,7.82,16.72,10.39,22.19,1.24,2.71,2.23,4.86,2.93,6.37l.76,1.7A4.09,4.09,0,0,1,280.37,432Z" style="fill:#263238"></path><path d="M224.52,330a2.54,2.54,0,0,1,.45.32l1.23,1c1.05.87,2.54,2.16,4.32,3.82s3.88,3.68,6.18,5.92,4.85,4.71,7.72,7.05a34.15,34.15,0,0,0,3.79,2.65l-.34.07c2.3-3.05,5-5.31,6.75-7.76l.19-.25.17.25,4.91,7.16,1.35,2a4.09,4.09,0,0,1,.43.74,5,5,0,0,1-.54-.66l-1.44-1.95-5.07-7.05H255c-1.78,2.53-4.47,4.83-6.69,7.81l-.14.19-.19-.12a32.4,32.4,0,0,1-3.87-2.69c-2.9-2.35-5.43-4.85-7.72-7.1s-4.34-4.31-6.1-6-3.2-3-4.2-3.94l-1.17-1C224.64,330.16,224.51,330,224.52,330Z" style="fill:#263238"></path><path d="M277.86,345.82a11.29,11.29,0,0,1-1.83,1c-1.18.58-2.86,1.38-4.83,2.3l-.23.1-.09-.23a21,21,0,0,0-2-3.73,20.58,20.58,0,0,0-1.39-1.84l.43-.06c-1.05,2.46-2,4.61-2.68,6.13a14.41,14.41,0,0,1-1.2,2.41,15.5,15.5,0,0,1,.89-2.53c.61-1.57,1.49-3.74,2.52-6.21l.16-.38.27.31a21.56,21.56,0,0,1,1.43,1.88,19.76,19.76,0,0,1,2,3.84l-.33-.13c2-.89,3.69-1.62,4.9-2.13A11,11,0,0,1,277.86,345.82Z" style="fill:#263238"></path></g><g id="freepik--speech-bubble-2--inject-3"><path d="M571.06,296.6l14.17,2.52a43,43,0,1,0-8-13.18v0Z" style="fill:#fafafa"></path><path d="M571.06,296.6l.37-.68,1.16-2.05c1-1.83,2.57-4.52,4.56-8a.09.09,0,0,1,.14,0l0,0,0,0-.19.1a43.25,43.25,0,0,1-2.56-20.84,44.17,44.17,0,0,1,1.36-6.57c.32-1.11.77-2.21,1.16-3.35a25.16,25.16,0,0,1,1.44-3.36A43,43,0,0,1,602.62,230a43.53,43.53,0,0,1,18.65-2.5,44.17,44.17,0,0,1,18.94,6.41,41.3,41.3,0,0,1,4.25,3c.72.5,1.31,1.16,2,1.73s1.32,1.16,1.91,1.82a44.34,44.34,0,0,1,3.43,4.06c.52.72,1.07,1.43,1.58,2.17l1.38,2.31a43.24,43.24,0,0,1,2.15,38.79,43.15,43.15,0,0,1-40.8,25.88,47.49,47.49,0,0,1-7.09-.77,55.75,55.75,0,0,1-6.4-1.8,42.73,42.73,0,0,1-17.45-11.92l.06,0-10.57-2-2.69-.5-.89-.18.94.15,2.73.46,10.52,1.8a.1.1,0,0,1,.07,0,42.7,42.7,0,0,0,17.39,11.75,57.94,57.94,0,0,0,6.37,1.76,46.46,46.46,0,0,0,7,.73,42.84,42.84,0,0,0,40.34-25.68,42.77,42.77,0,0,0-2.15-38.33c-.46-.76-.91-1.53-1.37-2.28s-1-1.43-1.55-2.14a45.28,45.28,0,0,0-3.39-4c-.58-.65-1.27-1.19-1.89-1.79a24.1,24.1,0,0,0-2-1.71,41.47,41.47,0,0,0-4.2-3A43.71,43.71,0,0,0,621.22,228a43.07,43.07,0,0,0-33.1,11.44A42.39,42.39,0,0,0,578.91,252a25.56,25.56,0,0,0-1.45,3.34c-.39,1.12-.83,2.21-1.16,3.32a42.78,42.78,0,0,0,1.05,27.22.12.12,0,0,1-.06.14.11.11,0,0,1-.13,0v0h.18l-4.63,7.88-1.21,2Z" style="fill:#263238"></path><path d="M630.52,271.82a4.37,4.37,0,1,1,4.36,4.36A4.37,4.37,0,0,1,630.52,271.82Z" style="fill:#263238"></path><path d="M613.05,271.82a4.37,4.37,0,1,1,4.36,4.36A4.37,4.37,0,0,1,613.05,271.82Z" style="fill:#263238"></path><path d="M595.62,274a4.37,4.37,0,1,1,6,1.6A4.36,4.36,0,0,1,595.62,274Z" style="fill:#263238"></path></g><g id="freepik--speech-bubble-1--inject-3"><path d="M199.2,99.42,185,101.94a43,43,0,1,1,8-13.19v0Z" style="fill:#fafafa"></path><path d="M199.2,99.42l-.43-.71-1.21-2-4.63-7.87h.16a.11.11,0,0,1-.15,0,.1.1,0,0,1,0-.12A42.84,42.84,0,0,0,194,61.49c-.33-1.1-.77-2.19-1.16-3.32a26.23,26.23,0,0,0-1.45-3.33,42.59,42.59,0,0,0-23.88-21.57,42.14,42.14,0,0,0-37.15,3.92,40.29,40.29,0,0,0-4.2,3c-.71.49-1.29,1.15-2,1.71s-1.31,1.15-1.89,1.8a42,42,0,0,0-3.39,4c-.52.71-1.06,1.41-1.56,2.14L116,52.09a42.79,42.79,0,0,0-2.15,38.34,42.79,42.79,0,0,0,40.33,25.68,46.58,46.58,0,0,0,7-.74,57.15,57.15,0,0,0,6.36-1.76,42.72,42.72,0,0,0,17.4-11.75.09.09,0,0,1,.06,0L195.53,100l2.73-.46.94-.14-.89.17-2.69.51-10.58,2,.07,0a42.71,42.71,0,0,1-17.45,11.93,58,58,0,0,1-6.41,1.8,48.55,48.55,0,0,1-7.08.77,43.23,43.23,0,0,1-40.81-25.89,43.29,43.29,0,0,1,2.16-38.79l1.38-2.31c.51-.73,1-1.44,1.58-2.16a40.44,40.44,0,0,1,3.43-4.06c.58-.66,1.28-1.21,1.91-1.82a24.87,24.87,0,0,1,2-1.73,41,41,0,0,1,4.26-3A44,44,0,0,1,149,30.34,43.41,43.41,0,0,1,182.43,42a42.85,42.85,0,0,1,9.27,12.71A25.35,25.35,0,0,1,193.15,58c.39,1.14.83,2.24,1.16,3.35A42.52,42.52,0,0,1,195.66,68a43,43,0,0,1-2.56,20.84l-.18-.1v0a.1.1,0,0,1,.15,0l0,0c2,3.48,3.51,6.17,4.56,8,.5.9.88,1.58,1.15,2S199.2,99.42,199.2,99.42Z" style="fill:#263238"></path><path d="M139.74,74.63A4.37,4.37,0,1,0,135.37,79,4.37,4.37,0,0,0,139.74,74.63Z" style="fill:#263238"></path><path d="M157.21,74.63A4.37,4.37,0,1,0,152.84,79,4.37,4.37,0,0,0,157.21,74.63Z" style="fill:#263238"></path><path d="M174.63,76.81a4.36,4.36,0,1,0-6,1.6A4.37,4.37,0,0,0,174.63,76.81Z" style="fill:#263238"></path></g></svg>
